<svg id="Layer_1" data-name="Layer 1" xmlns="http://www.w3.org/2000/svg" viewBox="0 0 256 256"><defs><style>.cls-1{fill:teal;}.cls-2{fill:#fff;}</style></defs><title>Artboard 1</title><circle class="cls-1" cx="128.75" cy="128" r="127.25"/><path class="cls-2" d="M128.75,13.67A114.33,114.33,0,1,0,243.08,128,114.46,114.46,0,0,0,128.75,13.67Zm0,218.71A104.38,104.38,0,1,1,214.13,68l-34.92,6a47.09,47.09,0,0,0-12-1.56q-14.53,0-23.86,9.68T134,107a20.53,20.53,0,0,0,11.17,18.74c-2.9,1.37-7.88,4.57-7.88,4.57a170.63,170.63,0,0,1-43,18.47,38.64,38.64,0,0,1-10.11,1.41q-10.08,0-14.88-5.74t-4.8-16l.31-6.25h2.58q24.13,0,37.1-8t13-22.06q0-9.29-6-14.49t-18-5.19A33.62,33.62,0,0,0,72.29,80q-9.61,7.5-15.43,21A70.28,70.28,0,0,0,51,129.1q0,15.07,8.2,23.59t22.57,8.51a52.64,52.64,0,0,0,12.42-1.37,196.44,196.44,0,0,0,36.27-14.55,10.59,10.59,0,0,0,5.67,6.39Q123.6,155.89,118,161.9a20.12,20.12,0,0,0-5.62,14.21,18.38,18.38,0,0,0,8.59,16.21q8.59,5.74,23.74,5.74,20.7,0,32.1-7.89t11.4-22.26q0-10-6.37-15.15t-20.5-6.87l-9.14-1.09a31.18,31.18,0,0,1-7.5-1.68,4.14,4.14,0,0,1-2.58-4.26q0-6.09,10.86-10.23a26.13,26.13,0,0,0,6.56.62q15.23,0,24.33-8.86T193,96.61q0-7.5-3.2-12.34L216.83,72a104.34,104.34,0,0,1-88.08,160.34Zm51.56-137a31.29,31.29,0,0,1-2.46,12.46,20.86,20.86,0,0,1-7.07,9A18.11,18.11,0,0,1,160,120.12q-6.25,0-9.76-3.48t-3.51-10.11a29.73,29.73,0,0,1,2.54-12.3,20.76,20.76,0,0,1,7.11-8.83A18.26,18.26,0,0,1,167,82.24q6.4,0,9.84,3.36T180.31,95.36Zm-113.56,16q3.75-13,10.82-20.38t15.11-7.34q6.09,0,8.94,2.73a9.12,9.12,0,0,1,2.85,6.87q0,8.83-9.49,13.47t-27.3,4.65Zm77.63,44.75,12.42,1.25q10.15,1.09,14.37,3.91a8.75,8.75,0,0,1,4.22,7.65q0,9.06-8,14t-22.22,5q-10,0-15.07-3.51a11,11,0,0,1-5.08-9.53A16.05,16.05,0,0,1,130,163Q135,158.08,144.38,156.12Z"/></svg>