<svg id="Layer_1" data-name="Layer 1" xmlns="http://www.w3.org/2000/svg" viewBox="0 0 256 256"><defs><style>.cls-1{fill:#009876;}.cls-2{fill:#fff;}</style></defs><title>Artboard 5</title><circle class="cls-1" cx="128" cy="128" r="128"/><path class="cls-2" d="M128,13A115,115,0,1,0,243,128,115.13,115.13,0,0,0,128,13Zm0,220A105,105,0,1,1,213.88,67.66l-35.12,6.06a47.37,47.37,0,0,0-12.1-1.57q-14.61,0-24,9.74t-9.39,25a20.66,20.66,0,0,0,11.23,18.85c-2.92,1.38-7.93,4.59-7.93,4.59A171.64,171.64,0,0,1,93.32,148.9a38.87,38.87,0,0,1-10.17,1.41q-10.13,0-15-5.77t-4.83-16.07l.31-6.28h2.59q24.28,0,37.32-8.05t13-22.19q0-9.35-6-14.57T92.5,72.15a33.81,33.81,0,0,0-21.29,7.54q-9.66,7.54-15.52,21.09a70.69,70.69,0,0,0-5.85,28.32q0,15.16,8.25,23.73t22.7,8.56A53,53,0,0,0,93.28,160a197.6,197.6,0,0,0,36.49-14.64,10.65,10.65,0,0,0,5.7,6.43q-12.65,4.24-18.31,10.29a20.24,20.24,0,0,0-5.66,14.3,18.49,18.49,0,0,0,8.64,16.3q8.64,5.77,23.88,5.77,20.82,0,32.29-7.93t11.47-22.39q0-10.06-6.4-15.24T160.77,146l-9.19-1.1a31.36,31.36,0,0,1-7.54-1.69,4.16,4.16,0,0,1-2.59-4.28q0-6.13,10.92-10.29a26.28,26.28,0,0,0,6.6.63q15.32,0,24.47-8.92t9.15-23.92q0-7.54-3.22-12.41l27.24-12.3A105,105,0,0,1,128,233ZM179.86,95.17a31.47,31.47,0,0,1-2.47,12.53,21,21,0,0,1-7.11,9.07,18.21,18.21,0,0,1-10.84,3.3q-6.29,0-9.82-3.5t-3.54-10.17A29.9,29.9,0,0,1,148.63,94a20.88,20.88,0,0,1,7.15-8.88A18.37,18.37,0,0,1,166.5,82q6.44,0,9.9,3.38T179.86,95.17ZM65.63,111.27q3.77-13.12,10.88-20.5t15.2-7.38q6.13,0,9,2.75A9.18,9.18,0,0,1,103.58,93q0,8.88-9.55,13.55t-27.46,4.67Zm78.09,45,12.49,1.26q10.21,1.1,14.46,3.93a8.8,8.8,0,0,1,4.24,7.7q0,9.11-8.05,14.1t-22.35,5q-10.06,0-15.16-3.54a11.07,11.07,0,0,1-5.11-9.58,16.14,16.14,0,0,1,5-11.94Q134.29,158.25,143.72,156.29Z"/></svg>