<svg id="Layer_1" data-name="Layer 1" xmlns="http://www.w3.org/2000/svg" viewBox="0 0 838.06 184.82"><defs><style>.cls-1{fill:#fff;}.cls-2{fill:none;stroke:#fff;stroke-miterlimit:10;stroke-width:2px;}</style></defs><title>tin-can</title><path class="cls-1" d="M43.44,83.77c1.89,1,1.59,2.59,1.19,4.19-0.64,2.63-1.41,5.23-1.18,8.3,3.42-3.32,2.85-8.32,6.13-11.59,0.92,4.21-1.95,8-.8,12.44,2.75-3.38,3-7.47,5.28-11.58,1.48,4.71-1.38,8.5-.39,13,3.41-6.09,5-12.47,8.67-17.92-1.64,5.57-3.77,11-3.18,17.07,3.25-5.17,4.56-11.38,8.5-16.31-2,5.8-4.16,11.55-3.42,17.88,3-5.35,4.38-11.51,8.35-16.45-1.79,5.66-3.73,11.25-3.83,18.3,3.94-5.78,4.73-12.09,9-16.71C77,87,75.95,89.55,75.31,92.2c-0.66,2.81-1.46,5.65-1.09,9.17,3.72-4.92,3.82-11.24,8.37-15.12C80.91,91.41,79,96.5,79.5,102.42c3.35-5,4.18-11,8.51-16.25-0.53,5.06-3.63,8.35-3.33,12.53,0.06,0.94-1.08,2.24.41,2.69,1.17,0.36,1.26-1,1.63-1.84,1.53-3.25,3.09-6.47,4.59-9.72A1.77,1.77,0,0,1,93,88.46c-0.51,4.77-5.1,8.79-2.7,14.25,3.35-3.18,3.18-8.35,6.79-11.76,0.51,1.86-.28,3.18-0.86,4.39a6.48,6.48,0,0,0-1.07,2.9c0,1.07-1,2.85.8,3.32,1.59,0.43,1.9-1.23,2.39-2.39a17,17,0,0,1,4.49-6.69c-3.18,5.57-2.9,11.76-3.5,17.83,1.14-2.89,2.74-5.7,3.29-8.7,0.45-2.52,1.44-1.51,2.63-1.15l-0.07-.08c0.48,3.26-.73,6.45-0.45,10.59,1.86-6.28,5.93-10.53,7.46-16.38,1.59,1.82.73,3.14,0.14,4.3a12.83,12.83,0,0,0-1.7,5.57c0,1.36-.61,4.19,2.62,1.82,1.86-1.36,3,1.47,4.69,2,1.46,0.41,3,1.26,4.53,1.43,2.54,0.28,5,.3,7,2.35a3.24,3.24,0,0,0,2.92.67c2.78-1.44,5.08.8,7.62,0.71,1.64,0,1.34,1.27,1.55,2.21a1.28,1.28,0,0,0,.93,1.3c0.85,0.14,1.18-.42,1.48-1.13,1.17-2.78,1.92-5.78,3.78-8.2,7.79-10.12,13.13-22.1,23.47-30.3a44.37,44.37,0,0,1,13.67-7.4c6.16-2,14.5,2,18.6,8.58,6.12,10,7.21,21,6.6,32.25A103.9,103.9,0,0,1,205.44,138c-0.8,2.31-.53,5.31-3.8,6.19a2,2,0,0,0-.57,1.52c0.19,5.36.12,5.66-3.3,11.14-0.94-1.05,1-1.84,0-2.88-0.85,3-3.18,2.12-4.4,1-1.85-1.69-4.13-2.46-6.08-3.83a19.49,19.49,0,0,1-6.59-8.88l-0.08.09c4.37-1.25,2.07-5.06,2.86-7.76,1.49,2.9,1,6,1.54,9.12,1.44-2.71,3.65-5.07,2.18-8.53-1.48.92,0.56,2.33-.72,3.12-1.64-2.72-1.35-3,.88-5.11,2.89-2.72,5.42-5.9,5-10.24-0.18-2,1.14-2.3,2.33-2.94s1.95-.24,2.52,1c0-4,.54-8.17-0.14-12.09-0.8-4.77-1.41-9.79-3.66-14.24-4.06-8-12.68-8.66-19.09-4.91-9.39,5.47-14.39,14.5-18.65,24a3.41,3.41,0,0,0,.27,3c0.44,1,.33,1.09-1.2,1.14a1.13,1.13,0,0,0-.57.13c-1,.67-2.74,8.29-2,9.43,1.23,2,1.11,3.7-.91,5.11-2.39,1.66-1.8,4.34-2.23,6.79-1.12-.29-0.9-1.2-1.07-1.88-0.33-1.23.35-3.45-1.54-3.33-2.16.14-1.28,2.39-1.26,3.72,0.06,4.53.29,9.05,0.55,13.57,0.13,2.27.08,4.35-1.67,6.15-1.45,1.5-1.33,3.53-.71,5.3,1.91,5.42,4.59,10.51,8.93,14.32,2,1.77,4.17,4.38,7.61,3.06-1-2.44-1-2.44,3.25-4.35-3-.4-5.69,0-8.15-1.35a8,8,0,0,1-3.76-3.45,77,77,0,0,0-4.95-9.91,1.66,1.66,0,0,1-.23-1.32c2-4.31.73-9,1.65-13.46a30.73,30.73,0,0,0,6.47,18.3,14.46,14.46,0,0,0,9.4,5.93c0.92,0.15,2.11.24,2.39-.85s-0.73-1.59-1.76-1.54c-3.24.18,0.8-3-1.59-3.46-0.23,0,1-1,1.7-1.07,7.83-.95,12.67-6.14,16.84-12.09,1.41-2,2.76-1.88,3.63-.22,1.7,3.25,5.23,3.18,7.73,5,0.84,0.6,2.27,1,2.09,2.22-0.37,2.56,1.49.53,2.31,1.31-6.68,10.83-13,21.48-25.17,27.85-10.3,5.4-19.6,5.2-29.82.8-6.87-3-14.15-5-21.26-7.38-8.65-2.94-17.18-6.28-26-8.68-9.55-2.6-18.51-6.59-28-9.28-11.07-3.18-21.77-7.64-32.67-11.41-3.49-1.2-5.57-2.87-4-6.87a9.45,9.45,0,0,1,1.38,0c6.2,0.9,11.74,6,18.58,2.9a0.73,0.73,0,0,1,.56.33c1.5,2.53,3.93,3,6.58,3.18,0.58,0,1,1.38,1.59.37,0.23-.36-0.27-1.18-0.7-2.74,2.29,2.7,5.24,3.55,5.82,7.16,0.25-3.11,1.36-2.82,2.83-1.3A6.26,6.26,0,0,0,72,156.72c2.57-.33,4,0.84,5.3,2.81,0.53,0.8,1.65,2.94,1.8-.28,0-.85.63-0.66,1.25-0.41,1.21,0.49,1.42,5.35,3.79.9a3.34,3.34,0,0,1,1.09.74,2.52,2.52,0,0,0,2.3,1.27c3.18,0,5.62,2.34,8.75,2.73,2.5,0.31,5,.85,6.59,3.18a1.89,1.89,0,0,0,.58-0.17c0.21-1-1.31-1.69-.48-3,1.7,1.95,4.38,2.9,4.56,5.78,1.76-.2,1.08-2,2.13-2.61,1.59,1.65,4.07,2.26,4.18,5,1.23-.49,1.59-2.28,2.86-1.39a28.09,28.09,0,0,0,9.49,4.61c3.67,1,7.34,3.18,11.19,3.53,2.82,0.25,5,.64,6.68,2.91a3.13,3.13,0,0,0,.89-0.24c-1.79-3.9-3.7-7.72-4.67-11.89a2.24,2.24,0,0,0-1.77-1.5c-4.73-1.59-9.38-3.43-14.19-4.77-11.93-3.29-23.56-7.67-35.39-11.33-7.43-2.3-14.93-4.77-22.28-7.41-5.44-2-11.14-3.55-16.76-5.16-10.1-2.9-20.07-6.32-30-9.84-3.36-1.19-5.71.72-7.47,2.31-1.45,1.31,1.49,2.85,2.39,4.35a11.5,11.5,0,0,0,2.68,2.62c3.52,3.25,7.89,4.61,12.43,5.64-6.95.93-11.85-2.85-16.76-7C4,130.51,2,120,1.22,109A90.43,90.43,0,0,1,2,89.17c0.12-.8.22-2.09,0.68-2.27,2.45-.93,1.94-2.58,1.44-4.39-0.4-1.45,1-1.69,1.79-2.2,1.59-1,1.11.8,1.64,1.3,2,1.82,4.52,2.57,7,3.31a45.94,45.94,0,0,0,4.77.88c-1-1.68-3.18-1.73-4.23-3.69,3.48,0.14,5.07-3.18,8.57-3.3,3.93-.14,4.95.08,4.77,4a0.8,0.8,0,0,0,0,.34c1.79,2.25,4.62,1.77,6.95,2.63,1.65,0.61,2.18-.48,2.74-1.8a67.25,67.25,0,0,1,5-9.81,77.66,77.66,0,0,0-5.07,24c2.63-5.09,3.76-9.93,5.49-14.54ZM19.8,100.92c-5.21-.11-9.75-1.34-14.32-0.33,2.68,1.23,5.86-.26,8.62,2.2a10.92,10.92,0,0,1-6.21.95c-2.88-.56-3.28.68-3.27,3.18,0,5.28,1.32,10.34,2.34,15.43,0.8,4,8.35,5.5,11.61,3,1.59-1.23,1.12-4.42,5.07-4,2.91,0.28,3.06-1.23,5.69,1.11-4.88-.4-6,4.77-10.2,5.93,10.84,4.24,21.66,6.95,32.21,10.41,7.16,2.39,14.4,4.42,21.56,6.76,9.18,3,18.3,6.19,27.46,9.21,12.19,4,24.43,7.88,36.6,12,2.26,0.8,2.79.49,2.26-1.73-1.81-7.58-1.13-15.29-1-22.94,0.07-3.29,1.13-5.42-3.83-7-7-2.18-14.05-4.5-21-6.87-2.74-.92-6-1-5.78-5.32-2.18,1.92-2,4.77-4.15,6.6-1.31-3,.18-6.09-1.12-9.13-1.87,2.47-2.07,5.43-4.36,7.76-0.91-3.47.66-6.73-.91-9.83-0.93,2.3-1.75,4.34-2.59,6.36-0.22.54-.53,1.22-1.15,1.14-0.93-.11-0.8-1-0.8-1.66,0-2.11.47-4.27-.39-6.6-2.08,2.23-2,5.31-4.65,7.76v-7a1,1,0,0,0-.53-1.15c-0.71-.21-1,0.23-1.28.8-0.91,1.59-1.19,3.56-3,5.09-0.85-3.74.15-7.16-.3-11-1.36,3.53-2.2,6.64-4,9.67-2-2.39-.3-5.34-1.95-7.84-0.8,1.73-1.45,3.06-2,4.42-0.25.56-.51,1.17-1.17,1.05a1.27,1.27,0,0,1-.84-1.39l-0.48-4.77c-2.39,1.07-1.91,3.89-4,5.06-1.06-2-.34-4.47-2.39-5.79-0.9,1.49-.9,3.44-2.86,4.43l-1.18-6.44c-2.13,1.05-1.49,3.78-3.64,5a42.57,42.57,0,0,0-.66-4.26c-0.17-.64.91-1.78-0.58-1.93-1-.1-1.26.8-1.59,1.59-0.21.53-.58,1-0.8,1.51S53.92,114,53,113.8a1.35,1.35,0,0,1-1-1.89c0.84-1.46-.26-1.37-1-1.79-1.15-.64-1.39,0-1.68.89-0.2.62-.49,1.65-1.31,1.15s-2.21-.45-1.89-2a1.22,1.22,0,0,0-.67-1.59H45.31c-1.51.18-.58,2.63-2.49,2.47-2.82-.25-1.11-3.09-2.55-4.61-0.67,2.39-3.06,2.22-4,4.18-0.65-1.85.37-3.43-.59-4.72-1.26-.42-0.8,1.74-2.29,1.19,0.71-3.81-2.43-4.35-4.89-5.17C25,100.69,21.36,99.93,17.81,99a1.75,1.75,0,0,0-.59.45Zm182.67,20.52c0.8-1.95-.27-3.79.06-5.57a43.76,43.76,0,0,0-5.31-31.62c-4.38-7.33-12.44-9.45-20.3-6.13a34.21,34.21,0,0,0-12.61,9.55c3.39,0.25,5.51-1.77,7.76-3.6,7-5.68,18.63-4,22.69,3.8a47.89,47.89,0,0,1,5.14,20.73c0.14,4.31-1.11,9.09,2.6,12.82h0Zm-199.28-21C1.5,105,1.74,111.7,3.92,115.29A115.2,115.2,0,0,1,3.18,100.48Zm187.35,44.84c0,0.69-.18,2,0.53,1.7,2.07-.8,1.59-3.26,2.61-4.82,0.27-.41.28-1.36-0.57-1.2-2.43.47-1.88,2.81-2.56,4.33h0ZM194,150c2.21-3.33,4.26-6.82,4.29-11Zm7-10.89c-1.48,3.47-3.13,6.08-3.5,9.55,2.16-2.82,2.93-5.74,3.5-9.55h0Zm-53-24.58c1-1.47,1.86-2.77,1.16-4.46a1,1,0,0,0-.85-0.14,4.35,4.35,0,0,0-.91,4.11,3,3,0,0,0,.6.5h0Z" transform="translate(-1 -7.04)"/><path class="cls-1" d="M41,69c1.18-.45,1.17-2.1,2.89-1.7-0.8,2.29-.49,5.35-4.55,3.8a4.32,4.32,0,0,0-3.38.5c-3.1,1.54-6.28-.48-9.44.2-0.8.17-1.82-1.32-2.16-2.47-1-3.47-3.13-5.14-6.86-4.53-0.49.08-1.15-.41-1.46,0.29a1.41,1.41,0,0,0,.63,1.8,8.94,8.94,0,0,1,2.67,3.83c-2.24-2.11-3.72,4.55-6.06.21-1.32.8,0.8,2.68-1.09,3.23a1,1,0,0,1-.88-0.26,4.77,4.77,0,0,1,.31-3.68c1.77-3.83,3.61-7.67,5.39-11.52,0.53-1.15,1.23-.93,2.22-0.64a103,103,0,0,0,12.65,2.39C37,61.3,40.54,64.68,41,69Z" transform="translate(-1 -7.04)"/><path class="cls-1" d="M178.91,94.49a11.55,11.55,0,0,1,11.26,11.4c0,1.59-3.83,3.48-5.64,2.08-5.33-4.16-10.12-.8-15.12.39-2,.47-4,1.17-6,1.65a2.07,2.07,0,0,1-1.59-.38c-0.58-.49,0-1,0.25-1.52,3-4.89,6.47-9.32,11.4-12.47A10,10,0,0,1,178.91,94.49Z" transform="translate(-1 -7.04)"/><path class="cls-1" d="M171.1,127.63a15.47,15.47,0,0,1-1.34-2.55c-0.29-1,1.06-1.81,1.23-1.48,1,2,4.29,7,2.94,7.72-1.82.88-1.81-1.37-3.09-1.79-1.19,1.54.84,2.67,0.63,4.09-3.85.24-6.36,3.18-9.31,5s-4.92,3.81-7.57,4.26c-1,.18-1.86.27-2.12-1-0.2-1,0-1.36,1.12-2,5.57-3.18,11.09-6.59,14.5-12.28C169.17,125.75,169.66,127.36,171.1,127.63Z" transform="translate(-1 -7.04)"/><path class="cls-1" d="M172.84,150c0,2.11-6.25,7.25-8,6.95a1.07,1.07,0,0,1-.8-1.59,8.28,8.28,0,0,1,1.42-3.11c1.59-1.65,2.32-3.18,1.59-5.57s1.39-3.37,3-4.36c0.8-.5,1.29.15,1.37,0.94A31.61,31.61,0,0,0,172.84,150Z" transform="translate(-1 -7.04)"/><path class="cls-1" d="M102.83,47.27c6.09,2.89,12.78,3.8,19.18,5.62,8.09,2.28,16.29,4.21,24.36,6.6-4.56-.13-8.93-1.49-13.31-2.58-6-1.48-11.93-3.18-17.85-4.77-3.64-1-7.26-1.93-10.87-3-0.8-.24-1.84-0.58-1.52-1.87h0v0Z" transform="translate(-1 -7.04)"/><path class="cls-1" d="M158.63,162.54c-1.42-2.19-1.05-4.65-2.39-6.48-0.33-.44-0.29-1.13.09-1.22a16.76,16.76,0,0,1,5-.8c1.19,0.1,1.23,1.64,1,2.63-0.34,1.34.5,3.66-2,3.57C158.29,160.15,159.42,161.74,158.63,162.54Z" transform="translate(-1 -7.04)"/><path class="cls-1" d="M174,136.9c2.71,2.78,2.75,7.3,6.51,9.34,0.49,0.26.8,0.8,0.35,1.09s-1.52.9-1.81,0.68c-1.91-1.44-2-.18-2.08,1.25a1,1,0,0,1-.87,1.09h-0.2c-0.93-.13-0.93-0.91-0.8-1.59A21.42,21.42,0,0,0,174,136.9Z" transform="translate(-1 -7.04)"/><path class="cls-1" d="M37.75,37.68c6.12-3.18,12.36-5.83,19.38-2.45C50.46,34.35,44,34.76,37.75,37.68Z" transform="translate(-1 -7.04)"/><path class="cls-1" d="M43.53,83.65c-0.8-.54-1.2.21-1.88,0.56,1.69-4.16,2.47-8.66,5.44-12.29,0.19,4.36-4.08,7.41-3.65,11.83Z" transform="translate(-1 -7.04)"/><path class="cls-1" d="M102.83,47.27c-3,2.12-5.68-.68-8.56-0.8-1.49,0-3-1-4.39-1.84,4.39,0.47,8.52,2.39,13,2.62h0v0Z" transform="translate(-1 -7.04)"/><path class="cls-1" d="M52.63,72.63c-0.26,3-1.85,5.28-3.72,7.44C49.53,77.26,50.32,74.6,52.63,72.63Z" transform="translate(-1 -7.04)"/><path class="cls-1" d="M105.22,100.48c-0.61-2.93.58-5.2,2.8-7.1a14.22,14.22,0,0,1-2.88,7Z" transform="translate(-1 -7.04)"/><path class="cls-1" d="M180.6,142.29c-2.34-1-3-3-3-5.57,3,1,2,3.85,2.92,5.67Z" transform="translate(-1 -7.04)"/><path class="cls-1" d="M58.5,83.61c0.86-3.62,1.59-6.13,4.16-8.85C61.82,78.3,60.44,80.49,58.5,83.61Z" transform="translate(-1 -7.04)"/><path class="cls-2" d="M174.27,128.85S312,116.64,366,155s92.67-32.81,184-22.57,63.67,55.25,239,57.25" transform="translate(-1 -7.04)"/><path class="cls-1" d="M830.22,109.86a6.07,6.07,0,0,1,1-.19c1.13,0,2.42-2,3.34-.1,0.81,1.66-.4,2.8-1.83,3.63a2,2,0,0,0-1.36,1.29c1,0.76,2.67-1.3,3.24.75,0.46,1.64-.61,2.62-1.83,3.44a13.29,13.29,0,0,0-3,2.44,14.39,14.39,0,0,1,2-.74c0.83-.18,1.81-1.36,2.52,0a2.29,2.29,0,0,1-.81,3.15c-1.75,1.19-3.54,2.31-5.49,3.57,1.57,0.11,2.57-.86,3.77-1.21,0.84-.24,1.79-1.51,2.52-0.25a2.58,2.58,0,0,1-.78,3.23c-0.72.62-1.77,0.82-2.34,2,0.84,0.77,2.57-1.16,3,.83,0.58,2.56-2.16,2.91-3.06,4.45,0.82,1.11,2.5-1,2.91,1.05,0.5,2.43-1.94,2.81-3,4.52,1.16,0.33,2.43.18,2.35,2.25-0.25,6.38-.15,12.78.11,19.15,0.12,2.9-1.53,4.39-3.48,5.78-1.22.87-3.19,0.32-3.57-.44-1.37-2.75-3.94-4.57-4.95-7.68s-1.29-6.51-4.43-8.56c-1.54-1-.91-3.28,1-3.92,3.25-1.07,4.8-4.62,8.2-5.49,0.71-.18.65-1.09,0.29-1.69a1.62,1.62,0,0,0-2-.64c-1.73.58-3.43,1.28-5.45,2.06,1-2.37,3.13-2.67,4.86-3.49,1.07-.51,2.31-1,2.39-2.32a2.41,2.41,0,0,0-1.55-2.31,2.66,2.66,0,0,0-3.14,1,2.92,2.92,0,0,1-3,1.27c-0.22-1.09,1.46-.6,1.11-2.11a116.38,116.38,0,0,1-32.62,5.13c-11,.14-21.94-0.1-33-3.37,1.74-1.73,3.52-1.21,5.07-1a184,184,0,0,0,38.57.88A104.31,104.31,0,0,0,823,130.51a5,5,0,0,0,1-.92c-2.69-.27-4.85.6-7.06,1s-4.7.79-7,1.27a140.12,140.12,0,0,1-35.53,2.4,96.45,96.45,0,0,1-18.23-2.59,13.93,13.93,0,0,1-1.57-.42,1.21,1.21,0,0,1-1-1.41c0.21-.86.93-0.79,1.58-0.64a25.94,25.94,0,0,0,3.13.82c17,1.76,33.91,2.45,50.77-.92A74.32,74.32,0,0,0,823.9,124c-23.78,5.4-47.55,7.55-71.72,1.58,1.37-2.17,2.79-1.92,4.65-1.51,14.68,3.19,29.45,2.2,44.21.67a77.87,77.87,0,0,0,20.09-4.88c0.45-.17,1.14-0.13,1.18-1.22a157.14,157.14,0,0,1-20.59,3.67,140.17,140.17,0,0,1-50-2,1.81,1.81,0,0,1-.54-0.39c0.26-2.82,2.12-2.08,3.82-1.74,17.32,3.42,34.67,2.93,52,.1A48.18,48.18,0,0,0,822,113.53c-1.2-.15-2.53,0-2.77-1.42-0.21-1.21-1.24-2.62-1.82-2-1.12,1.19-3.89.56-3.6,2.92,0.24,1.93-1,2-2.09,2.13-12,1.6-24,4.82-36.25,1.28a1.12,1.12,0,0,0-1.41.31l1.12,0.58c-0.4.6-1,.17-1.47,0.23-4.14.54-8.24-.22-12.27-0.85-3.59-.56-7.51.12-10.73-2.66-1.22-1.05-2.06.5-2,1.85,0.06,1.79,1.62,2.72,2.52,4-3.27.09-5-.58-3.9-4.67,0.41-1.56-.66-3.75,0-5.81,0.25-.77-0.58-1.75-1.75-2a15.44,15.44,0,0,1-2.78-.86c-0.86-.34-1.63-1-1.17-2s1.33-.37,2-0.16c13,3.73,26.36,4.75,39.83,4.67,9.55-.05,19-0.77,28.31-3.21a3.61,3.61,0,0,1,4.71,2.1,1.24,1.24,0,0,0,1.66.51c0.67-.15,1.39-0.49.84-1.29-0.72-1.06-.3-2.24-0.11-3.13,0.57-2.65-1.13-2.79-2.39-1.89-3.58,2.57-7.77,2.53-11.75,3.19a142.7,142.7,0,0,1-19.74,1.62c-1.2,0-2.64.59-3.51-.93a1,1,0,0,0-.81-0.39c-8,2.91-15.89.31-23.75-.72-4.39-.58-8.87-1.24-12.92-3.36-0.47-.25-1.06-0.3-1.5-0.59-0.79-.5-2.07-1-1.74-2,0.41-1.24,1.7-.49,2.57-0.31,4.55,1,9,2.48,13.63,3.06,18.22,2.27,36.44,3.23,54.5-1.39a8,8,0,0,1,3.52-.32c2.17,0.48,3.13.46,4.14-2.19,0.9-2.35,4.4-2.16,7-2.42l-0.08-.09c-1.23,1-3.07,1-4.09,2.7a12.9,12.9,0,0,0,3.79-1c0.58-.31,1.27-1.26,2-0.47s0.28,1.77-.89,2.34c1.88,0.88,3.17-.44,4.64-0.47,1,0,2.08-1,2.75.41,0.59,1.27,0,2.28-1,3.08-0.59.45-1.17,0.93-2,1.6,1.18,0.57,2.8-.86,3.26.89s-0.61,2.47-1.86,3.34c-0.82.57-2,.94-2.29,2.12-0.62-.12-1.7-0.1-1.78-0.36-1.33-4.85-3.54-1.16-5.37-.57-0.84.27-1.08,0.85-.62,1.78a1.29,1.29,0,0,0,1.83.69C826.3,110.9,828.26,110.39,830.22,109.86ZM815,110a2.9,2.9,0,0,0-2.65-.35,147.41,147.41,0,0,1-19.64,2.53c-13.11.62-26.19,0.74-39.11-2.22-1.67-.38-4.5-2.29-5-0.14-0.72,3,2.76,2.1,4.46,2.41a153.72,153.72,0,0,0,46.59,1.51C804.7,113.14,810,113.09,815,110Zm10.25-4.9a2.38,2.38,0,0,0,3.52-1c0.3-.53-0.47-2.36-1.14-2.63-1.88-.74-3.24.49-4.59,1.87,1.5,0.71,2.77-1.35,3.68,0S825,103.86,825.23,105.1Zm0.27,43.67,0-.45a16.42,16.42,0,0,0-3.45.06c-0.81.18-2.4,0.38-2.1,1.43,0.4,1.4,1.49.22,2.29,0C823.29,149.42,824.4,149.11,825.5,148.77Z" transform="translate(-1 -7.04)"/><path class="cls-1" d="M750.23,16.13c-7.52.3-13.93,2.13-19.14,7.08-0.69.65-1.47,1.55-2.47,0.49s-1.69-2.56-.92-4.14C728.86,17.19,731,16,733.32,15a100.36,100.36,0,0,1,36.34-7.58c17.12-.52,34.23-1.24,51.08,2.82,4.84,1.16,9.65,2.49,13.75,5.52,3.54,2.61,3.39,4.53.16,7.48-5.5,5-12.5,6.2-19.29,7.56A187,187,0,0,1,750,32a64.65,64.65,0,0,1-15.34-4c-1.16-.48-2.8-0.68-2.84-2.23,0-1.36,1.27-2.21,2.32-2.92a38.08,38.08,0,0,1,12.75-5.41A9.65,9.65,0,0,0,750.23,16.13Zm12.34-2.24c3.58,0.44,6.57-1,9.65-1.06,15-.06,30.09-0.22,44.87,3.22,5.47,1.27,11.06,2.38,15.45,6.61a3.28,3.28,0,0,0-1.83-3,38.37,38.37,0,0,0-14.19-5.06c-9.2-1.4-18.48-2-27.76-2.61-2.27-.15-4.38-1-6.72-0.85A167.61,167.61,0,0,0,762.57,13.89Z" transform="translate(-1 -7.04)"/><path class="cls-1" d="M811,71.84a4.45,4.45,0,0,1-1.52-3.49c-0.11-4.36.51-8.65,0.54-13,0-1.09.23-2.49-1.29-2.46s-0.93,1.38-.86,2.28c0.18,2.35-.93,4.49-1.44,6.67a10.69,10.69,0,0,0,.32,6.74c0.62,1.55.07,2.3-1.32,2.62a40.88,40.88,0,0,1-6.68,1.31c-10.7.62-21.41,1.09-32.12,0-6.13-.63-7.34-2.7-4.86-8.45a2.12,2.12,0,0,0,.11-2.17c-3.76-4.76-2.86-11.13-5.63-16.23a4.42,4.42,0,0,0-.24-0.93c-1.66-1.52-2.54-3.08-1.06-5.29s3.77-1.51,5.62-1.31c10.59,1.16,21.2.76,31.8,0.51,3.67-.09,7.33-0.65,11-1,2.08-.19,4.31-1.73,6.14.87a2,2,0,0,0,3-1.25c0.58-2.2,2.79-1.79,4.36-1.75,1.94,0,.8,1.83,1.09,2.82,1.79,6.12,1.91,12.64,4.28,18.59,1.3,3.25,4.93,5.2,5,9.4,0.34-.28.19-0.08,0,0-5.54,1.73-5.6,1.74-6.95-4.15-1-4.34-2.08-8.6-5.23-12.23-1,.89-0.23,2.25-0.89,3.51-1.46-3.22-1.73-6.47-2.15-9.69-0.1-.78,0-2.12-1.18-1.95-1.47.22-.48,1.42-0.3,2.07,2.3,8.16,1.21,16.47,1.13,24.73,0,1.62.08,1.63,2.68,2.4l-3.42.75Z" transform="translate(-1 -7.04)"/><path class="cls-1" d="M810.92,71.77A1.94,1.94,0,0,0,813.56,73c2.62-1.17,5.79-.84,8.06-3.07a3.69,3.69,0,0,1,3.27-1c0.91,0.2,1.93.48,1.86,1.84a1.78,1.78,0,0,1-1.49,1.75c-10.44,4.09-21.33,5.79-32.46,6.25a32,32,0,0,0-3.24.19,20.76,20.76,0,0,1-12.24-2.06,5,5,0,0,0-4.45-.25l5.75,2a71.22,71.22,0,0,1-17.12-.49c-3.85-.52-7.75-0.81-11.52-1.94-0.85-.26-2.21-0.72-2.44.65s1.16,1.26,2.08,1.45c15.17,3.2,30.51,3.41,45.89,2.36a74.33,74.33,0,0,0,15.35-2.27c2.22-.63,5.09-0.67,7.68-1,2-.26,2.95-2,4.78-2.46s3.12-.68,3.73,1.16c0.68,2.07-1.27,1.83-2.39,2.14-7.88,2.2-15.62,5-23.88,5.64-8.52.63-17,.38-25.55,0.34a125.3,125.3,0,0,1-20.93-1.68,52.85,52.85,0,0,1-12.79-3.42c-0.92-.41-2.38-0.56-2-2s1.59-.92,2.72-0.75,3.1,2,3.71.35c0.77-2-1.9-1.67-3-2.38a16.08,16.08,0,0,0-2.67-1.18c-0.77-.3-1.38-0.5-0.68-1.57,0.45-.69.28-1.41,1.67-1.05A127.63,127.63,0,0,0,757.36,74a188.69,188.69,0,0,0,40.53.66c4.46-.41,9.19.15,13.12-2.8Z" transform="translate(-1 -7.04)"/><path class="cls-1" d="M839,167.55c0.2,3.32-1.47,6-2.67,8.88-0.22.51-.57,1.42-1.32,1.27-4.35-.9-6,2.51-8.75,4.75s-5.84,5.54-10.46,4.85a4.89,4.89,0,0,0-3.41,1.52c-1.6,1.56-3.48,1.42-5.38,1.47-9.09.24-18.1,1.91-27.23,1.5-12-.54-24-1.73-35.19-6.6-1.78-.77-3.45-1.78-5.16-2.71-0.55-.3-1.31-0.59-1.1-1.4s1.07-1,1.85-1c2.26,0,4.48.16,6.5,1.44,1.75,1.11,2.75.88,2.71-1.57-0.17-11.46-.44-22.92-1.07-34.36-0.21-3.83.3-7.7-.68-11.49a1.15,1.15,0,0,1,.8-1.54c1-.07,1.17.9,1.14,1.63-0.38,10.62.65,21.2,0.67,31.81,0,5.16,1,10.3.34,15.47-0.14,1.2.55,1.63,1.66,1.94a82.52,82.52,0,0,0,19.86,2.92c3.49,0.09,6.87.82,10.32,1,10.69,0.42,21.08-1.72,31.43-4a53.61,53.61,0,0,0,16.25-6.3C834,174.71,837.47,172,839,167.55Z" transform="translate(-1 -7.04)"/><path class="cls-1" d="M821.19,90.83c-3.15-.2-5.8,1.55-8.73,2.22-11.71,2.66-23.61,2.92-35.54,3-2,0-2.91-2.34-5-1.55l1.41,0.68v0.55c-3.09-.18-6.21-0.19-9.27-0.58a136.27,136.27,0,0,1-16.5-2.66,29.21,29.21,0,0,1-6.18-2.61c-0.66-.35-1.42-0.74-1-1.73s1.16-.77,1.92-0.59c3.54,0.83,7,1.89,10.62,2.46,19.39,3.08,38.7,3.59,58.15-.36,5.81-1.18,11.33-3.14,17.07-4.4,0.9-.2,1.91.07,3.45-0.51-1.5-.72-2.66.17-3.5-0.85a5.89,5.89,0,0,1,3.64-1.59c0.8-.14,2-1.25,2.46.28,0.39,1.23.5,2.61-1.16,3.26-3.32,1.3-6.61,2.67-9.94,3.93a3,3,0,0,0-1.88,1.13Z" transform="translate(-1 -7.04)"/><path class="cls-1" d="M783.25,90.27a149.24,149.24,0,0,1-24.6-1.43,87.19,87.19,0,0,1-16.7-4c-1.16-.4-2.06-1.13-1.68-2.36,0.43-1.39,1.61-.59,2.44-0.35,15.6,4.51,31.55,5.3,47.63,4.42,7.11-.39,14.16-1.31,21.22-2.33,4.71-.68,8.7-2.42,13-3.69,2.24-.66,4.67-0.4,5.72-3.33,0.34-.95,2.32-1.88,3.29-0.51a2.45,2.45,0,0,1-1.09,3.8c-4.63,2.33-9.76,3.23-14.55,5-10.68,3.88-21.64,4.71-32.78,4.83h-1.95Z" transform="translate(-1 -7.04)"/><path class="cls-1" d="M821.09,90.9c1.73,1,3.42,1.89,5.34.29a0.89,0.89,0,0,1,1.27.63,0.88,0.88,0,0,1-.44,1.1,13,13,0,0,1-1.71.91,87.36,87.36,0,0,1-26.44,6.76,178.1,178.1,0,0,1-41.73-1A56.54,56.54,0,0,1,743.54,96c-1.18-.51-3.09-1.11-2.8-2.18,0.44-1.63,2.21-.62,3.35-0.32,19.27,5,38.79,5.65,58.46,3.37,5.14-.6,10.06-2.58,15.33-2.54,1.05,0,2.09.12,3.44,0.26-1.23-1.45-2.84-1.39-4.12-2,1.06-1.16,2.79-.84,4-1.76Z" transform="translate(-1 -7.04)"/><path class="cls-1" d="M827,29.42c-1.73,1.86-3.2,1.71-4.45,2.54,1.09,0.89,2.24.16,3.28,0.46-3.72.51-7.4,1.24-11.12,1.77-4.8.69-9.65,1.42-14.47,2.1a139.77,139.77,0,0,1-32.88.78c-7.44-.71-14.74-2.16-22.08-3.41-2.2-.37-3.91-1.7-6-2.3A188.69,188.69,0,0,0,827,29.42Z" transform="translate(-1 -7.04)"/><path class="cls-1" d="M756.15,140.65l11.11,1.06A164.48,164.48,0,0,0,807,140.57c1.59-.24,4.37-1.3,4.61.38,0.29,2.09-2.61,1.91-4.32,2.21-15.11,2.62-30.25,3.18-45.41.43C759,143.07,757.75,142.58,756.15,140.65Z" transform="translate(-1 -7.04)"/><path class="cls-1" d="M810.78,146c-8,4.73-16.79,4.55-25.37,4.56s-17.54,1.21-25.59-3.69C776.82,148.39,793.81,148.53,810.78,146Z" transform="translate(-1 -7.04)"/><path class="cls-1" d="M746.5,70.36c-1.68-2-1.25-3.81-1.33-5.44-0.44-9.16-.73-18.32-1.09-27.49,0-.66-0.19-1.45.65-1.56,1.07-.15,1.1.72,1.13,1.52q0.55,15.51,1.11,31A9.52,9.52,0,0,1,746.5,70.36Z" transform="translate(-1 -7.04)"/><path class="cls-1" d="M826.14,95.49c1.61-2.1,4.2-2,6.39-2.63,1.77-.49,2.2,1,1.75,2.47-0.61,1.9-3.43,2.39-4.87.93-1-1-2.2-.69-3.34-0.86Z" transform="translate(-1 -7.04)"/><path class="cls-1" d="M827.28,89.79c1-1.55,3-1.58,4.67-2.15,0.87-.3,2.06-0.65,2.32.78,0.37,2-1.12,2.95-2.56,3.65-1.21.59-1.43,0-1.52-1.35C830,88.25,827.85,91.76,827.28,89.79Z" transform="translate(-1 -7.04)"/><path class="cls-1" d="M748.82,120.87l0.53,9.78C747.15,128.6,747,122.63,748.82,120.87Z" transform="translate(-1 -7.04)"/><path class="cls-1" d="M832.13,74.73c0.5-2.39-.11-3.76-3-2.8,1.67-.88,3.33-2,4.59-0.49C834.35,72.25,834.49,74.22,832.13,74.73Z" transform="translate(-1 -7.04)"/><path class="cls-1" d="M741.44,110.12c1.76-.18,3.22-0.65,4.28.8a0.92,0.92,0,0,1-.43,1.35C743.73,112.44,742.52,111.76,741.44,110.12Z" transform="translate(-1 -7.04)"/><path class="cls-1" d="M736.08,175.29c-3.11-.63-3.25-3-3.36-5.32Z" transform="translate(-1 -7.04)"/></svg>