<svg id="Layer_1" data-name="Layer 1" xmlns="http://www.w3.org/2000/svg" viewBox="0 0 839.06 191.82"><defs><style>.cls-1{fill:#fff;}.cls-2{fill:none;stroke:#fff;stroke-miterlimit:10;stroke-width:2px;}</style></defs><title>tin-can</title><path class="cls-1" d="M44.32,86c2,1,1.66,2.71,1.24,4.38-0.66,2.75-1.47,5.47-1.23,8.67,3.57-3.46,3-8.69,6.41-12.1,1,4.39-2,8.31-.83,13,2.87-3.53,3.14-7.8,5.52-12.09C57,92.74,54,96.7,55,101.42c3.56-6.36,5.23-13,9.06-18.72-1.71,5.82-3.94,11.53-3.32,17.83,3.4-5.4,4.76-11.89,8.87-17-2.11,6.06-4.34,12.06-3.57,18.67,3.14-5.59,4.57-12,8.72-17.18-1.87,5.91-3.9,11.75-4,19.11,4.11-6,4.93-12.63,9.43-17.45-0.88,2.71-1.93,5.38-2.59,8.14-0.69,2.93-1.52,5.9-1.14,9.58,3.88-5.14,4-11.74,8.74-15.78C83.44,94,81.41,99.28,82,105.46c3.5-5.21,4.36-11.47,8.89-17-0.55,5.28-3.79,8.71-3.48,13.08,0.07,1-1.13,2.34.42,2.81,1.22,0.37,1.31-1.08,1.7-1.92,1.6-3.39,3.22-6.75,4.79-10.15a1.84,1.84,0,0,1,1.77-1.43c-0.53,5-5.33,9.18-2.82,14.88,3.5-3.32,3.32-8.72,7.09-12.28,0.53,1.94-.29,3.32-0.9,4.59a6.77,6.77,0,0,0-1.11,3c0,1.12-1,3,.83,3.46,1.66,0.45,2-1.28,2.49-2.49a17.78,17.78,0,0,1,4.69-7c-3.32,5.82-3,12.28-3.66,18.62,1.19-3,2.87-6,3.43-9.09,0.47-2.63,1.5-1.58,2.74-1.2l-0.07-.08c0.5,3.41-.76,6.74-0.47,11.06,1.94-6.55,6.19-11,7.79-17.11,1.66,1.9.76,3.28,0.14,4.49a13.39,13.39,0,0,0-1.78,5.82c0,1.42-.64,4.38,2.73,1.9,1.94-1.42,3.09,1.54,4.9,2.05,1.52,0.43,3.1,1.31,4.74,1.5,2.65,0.29,5.24.32,7.34,2.45a3.38,3.38,0,0,0,3,.7c2.91-1.5,5.3.83,8,.74,1.71,0,1.4,1.33,1.62,2.31a1.34,1.34,0,0,0,1,1.35c0.89,0.14,1.23-.44,1.55-1.18,1.22-2.9,2-6,3.95-8.57,8.13-10.57,13.71-23.08,24.51-31.64a46.33,46.33,0,0,1,14.27-7.73c6.43-2.11,15.14,2,19.42,9,6.39,10.39,7.53,21.89,6.89,33.67-0.52,9.67-1.81,19.27-4.89,28.52-0.83,2.41-.56,5.55-4,6.46a2.05,2.05,0,0,0-.6,1.59c0.2,5.6.12,5.92-3.45,11.63-1-1.1,1.07-1.92,0-3-0.89,3.12-3.32,2.21-4.59,1-1.93-1.77-4.31-2.57-6.35-4-3.32-2.33-5.35-5.62-6.88-9.27l-0.08.09c4.56-1.3,2.16-5.28,3-8.1,1.55,3,1.09,6.28,1.61,9.52,1.5-2.82,3.81-5.29,2.28-8.91-1.55,1,.58,2.43-0.75,3.26-1.71-2.84-1.41-3.14.91-5.33,3-2.84,5.66-6.16,5.24-10.69-0.19-2.07,1.19-2.4,2.43-3.07s2-.25,2.63,1.06c0-4.22.56-8.53-.14-12.63-0.83-5-1.47-10.22-3.82-14.87-4.24-8.38-13.24-9-19.94-5.13-9.8,5.71-15,15.15-19.47,25.11a3.56,3.56,0,0,0,.28,3.12c0.46,1.06.34,1.14-1.25,1.19a1.18,1.18,0,0,0-.6.13c-1,.7-2.86,8.66-2.13,9.84,1.29,2.12,1.15,3.86-.95,5.33-2.49,1.74-1.88,4.54-2.33,7.09-1.17-.31-0.94-1.25-1.12-2-0.34-1.29.37-3.61-1.6-3.48-2.25.14-1.34,2.49-1.32,3.89,0.07,4.73.3,9.45,0.57,14.17,0.13,2.37.08,4.54-1.74,6.42-1.51,1.56-1.39,3.69-.74,5.53,2,5.66,4.79,11,9.32,15,2.1,1.84,4.35,4.58,7.94,3.19-1-2.55-1-2.55,3.4-4.54-3.15-.42-5.94,0-8.51-1.41a8.32,8.32,0,0,1-3.93-3.61,80.39,80.39,0,0,0-5.17-10.35,1.74,1.74,0,0,1-.24-1.38c2.08-4.5.76-9.36,1.72-14.06a32.09,32.09,0,0,0,6.75,19.11,15.1,15.1,0,0,0,9.82,6.19c1,0.16,2.2.25,2.49-.89s-0.76-1.66-1.84-1.61c-3.38.19,0.83-3.17-1.66-3.61-0.24,0,1-1,1.78-1.11,8.17-1,13.23-6.41,17.59-12.63,1.47-2.09,2.88-2,3.79-.23,1.78,3.39,5.47,3.32,8.07,5.2,0.88,0.62,2.37,1.07,2.18,2.32-0.39,2.68,1.55.56,2.41,1.37-7,11.31-13.6,22.43-26.29,29.08-10.76,5.64-20.47,5.43-31.14.83-7.17-3.09-14.78-5.18-22.2-7.7-9-3.07-17.94-6.55-27.13-9.06-10-2.72-19.33-6.88-29.24-9.7-11.56-3.32-22.73-8-34.12-11.91-3.65-1.25-5.82-3-4.15-7.17a9.87,9.87,0,0,1,1.45,0c6.47,0.94,12.26,6.28,19.4,3a0.76,0.76,0,0,1,.59.34c1.56,2.64,4.1,3.18,6.87,3.32,0.61,0,1,1.45,1.66.39,0.24-.37-0.28-1.23-0.73-2.86,2.39,2.82,5.47,3.71,6.08,7.48,0.27-3.25,1.42-2.94,3-1.35a6.54,6.54,0,0,0,5.67,1.93c2.68-.34,4.2.87,5.53,2.93,0.56,0.83,1.72,3.07,1.88-.29,0-.89.66-0.69,1.3-0.43,1.26,0.52,1.49,5.58,4,.94a3.49,3.49,0,0,1,1.14.77,2.63,2.63,0,0,0,2.4,1.32c3.32,0,5.87,2.44,9.14,2.85,2.61,0.32,5.23.89,6.88,3.32a2,2,0,0,0,.61-0.17c0.22-1-1.37-1.76-.5-3.1,1.78,2,4.58,3,4.76,6,1.84-.21,1.13-2.12,2.23-2.72,1.66,1.72,4.25,2.36,4.37,5.18,1.28-.51,1.66-2.38,3-1.45a29.34,29.34,0,0,0,9.91,4.82c3.83,1,7.67,3.32,11.68,3.69,2.94,0.26,5.21.67,7,3a3.27,3.27,0,0,0,.93-0.25c-1.87-4.07-3.86-8.06-4.88-12.41a2.33,2.33,0,0,0-1.84-1.57c-4.93-1.66-9.79-3.58-14.81-5-12.46-3.43-24.6-8-37-11.83-7.76-2.4-15.59-5-23.26-7.73-5.68-2.05-11.63-3.71-17.5-5.38-10.55-3-21-6.6-31.31-10.28-3.51-1.25-6,.75-7.8,2.41-1.51,1.37,1.55,3,2.49,4.54a12,12,0,0,0,2.8,2.73c3.68,3.4,8.24,4.81,13,5.89-7.25,1-12.37-3-17.5-7.26C3.16,134.79,1,123.83.23,112.31a94.44,94.44,0,0,1,.83-20.68c0.12-.83.23-2.18,0.71-2.37,2.56-1,2-2.69,1.5-4.59-0.42-1.51,1-1.77,1.87-2.29,1.66-1,1.15.83,1.71,1.35,2.06,1.9,4.72,2.68,7.32,3.46a48,48,0,0,0,5,.91c-1.08-1.75-3.32-1.8-4.42-3.85,3.63,0.14,5.29-3.32,8.95-3.45,4.1-.15,5.17.08,5,4.15a0.83,0.83,0,0,0,0,.36c1.87,2.35,4.83,1.85,7.25,2.75,1.73,0.64,2.28-.5,2.86-1.88A70.23,70.23,0,0,1,44,75.95,81.09,81.09,0,0,0,38.69,101c2.75-5.32,3.92-10.37,5.73-15.18Zm-24.69,17.9c-5.44-.12-10.19-1.4-15-0.34,2.8,1.29,6.12-.27,9,2.29a11.41,11.41,0,0,1-6.48,1c-3-.59-3.42.71-3.41,3.32,0,5.52,1.38,10.8,2.44,16.12,0.83,4.15,8.71,5.74,12.12,3.18,1.66-1.28,1.17-4.62,5.29-4.23,3,0.29,3.2-1.29,5.94,1.15-5.1-.42-6.3,5-10.65,6.19,11.32,4.43,22.61,7.25,33.63,10.87,7.48,2.49,15,4.62,22.51,7.06,9.59,3.13,19.11,6.46,28.68,9.62,12.73,4.2,25.51,8.22,38.22,12.53,2.36,0.83,2.92.52,2.36-1.8-1.89-7.92-1.18-16-1-24,0.07-3.43,1.18-5.66-4-7.27-7.32-2.28-14.67-4.7-22-7.18-2.86-1-6.25-1-6-5.56-2.28,2-2.13,5-4.33,6.89-1.37-3.14.19-6.36-1.17-9.53-2,2.58-2.16,5.67-4.55,8.11-1-3.62.69-7-1-10.27-1,2.4-1.83,4.54-2.7,6.65-0.23.56-.56,1.27-1.2,1.19-1-.12-0.83-1-0.83-1.74,0-2.2.49-4.46-.41-6.89-2.17,2.33-2.09,5.55-4.86,8.1v-7.26a1,1,0,0,0-.56-1.2c-0.74-.22-1,0.24-1.34.83-0.95,1.66-1.25,3.72-3.13,5.32-0.89-3.9.16-7.48-.32-11.49-1.42,3.69-2.3,6.94-4.15,10.09-2-2.49-.32-5.57-2-8.19-0.83,1.81-1.51,3.2-2.12,4.62-0.26.59-.53,1.22-1.22,1.1a1.33,1.33,0,0,1-.87-1.45l-0.5-5c-2.49,1.11-2,4.06-4.15,5.28-1.1-2.06-.36-4.67-2.49-6-0.94,1.55-.94,3.59-3,4.63l-1.23-6.72c-2.23,1.1-1.55,3.95-3.8,5.18a44.45,44.45,0,0,0-.69-4.45c-0.17-.67.95-1.86-0.61-2-1.08-.11-1.32.83-1.66,1.66-0.22.55-.61,1-0.83,1.58s-0.33,1.66-1.27,1.47a1.41,1.41,0,0,1-1-2c0.87-1.52-.27-1.43-1.07-1.87-1.2-.67-1.45,0-1.75.93-0.21.65-.51,1.72-1.37,1.2s-2.31-.47-2-2.13a1.27,1.27,0,0,0-.7-1.66H46.27c-1.58.19-.61,2.75-2.6,2.58-2.94-.26-1.16-3.23-2.66-4.81-0.7,2.49-3.19,2.32-4.15,4.36-0.68-1.94.39-3.58-.61-4.93-1.32-.44-0.83,1.82-2.39,1.24,0.74-4-2.54-4.54-5.11-5.4-3.66-1.22-7.48-2-11.19-3a1.83,1.83,0,0,0-.61.47Zm190.75,21.43c0.83-2-.28-4,0.07-5.82,2.25-11.71.54-22.82-5.54-33-4.57-7.65-13-9.87-21.2-6.41a35.72,35.72,0,0,0-13.17,10c3.54,0.26,5.76-1.85,8.1-3.76,7.31-5.93,19.46-4.15,23.69,4a50,50,0,0,1,5.37,21.65c0.15,4.5-1.15,9.5,2.72,13.39h0ZM2.28,103.44C0.52,108.17.77,115.15,3,118.9A120.3,120.3,0,0,1,2.28,103.44Zm195.64,46.82c0,0.72-.18,2.05.55,1.78,2.16-.83,1.66-3.41,2.72-5,0.28-.42.29-1.42-0.6-1.25-2.53.49-2,2.93-2.68,4.52h0Zm3.66,4.93c2.31-3.47,4.45-7.12,4.48-11.52Zm7.3-11.37c-1.55,3.62-3.27,6.35-3.66,10,2.25-2.94,3.06-6,3.66-10h0Zm-55.36-25.67c1-1.54,1.94-2.89,1.21-4.66a1.06,1.06,0,0,0-.89-0.15c-0.9,1.29-1.54,2.67-1,4.3a3.16,3.16,0,0,0,.63.52h0Z" transform="translate(0 -7.04)"/><path class="cls-1" d="M41.8,70.55c1.23-.47,1.22-2.19,3-1.78-0.83,2.39-.52,5.58-4.75,4a4.51,4.51,0,0,0-3.53.52c-3.24,1.61-6.55-.5-9.86.21-0.83.17-1.9-1.38-2.25-2.58-1.06-3.62-3.27-5.37-7.16-4.74-0.52.08-1.2-.43-1.52,0.31a1.47,1.47,0,0,0,.66,1.88,9.33,9.33,0,0,1,2.78,4c-2.33-2.2-3.89,4.75-6.33.22-1.38.83,0.83,2.8-1.14,3.37a1.07,1.07,0,0,1-.91-0.27,5,5,0,0,1,.32-3.84c1.84-4,3.77-8,5.63-12,0.55-1.2,1.29-1,2.32-.67a107.59,107.59,0,0,0,13.21,2.49C37.63,62.52,41.29,66.05,41.8,70.55Z" transform="translate(0 -7.04)"/><path class="cls-1" d="M185.78,97.18a12.06,12.06,0,0,1,11.76,11.91c0,1.66-4,3.64-5.89,2.17-5.57-4.34-10.57-.83-15.78.41-2.11.49-4.15,1.22-6.29,1.73a2.16,2.16,0,0,1-1.66-.4c-0.61-.51,0-1.07.27-1.59,3.12-5.11,6.75-9.74,11.91-13C182,97.18,184,97.22,185.78,97.18Z" transform="translate(0 -7.04)"/><path class="cls-1" d="M177.63,131.78a16.16,16.16,0,0,1-1.4-2.67c-0.3-1.07,1.1-1.89,1.28-1.55,1,2.06,4.48,7.36,3.07,8.06-1.9.92-1.89-1.43-3.23-1.87-1.24,1.61.88,2.78,0.66,4.27-4,.25-6.65,3.32-9.72,5.19s-5.14,4-7.9,4.45c-1.06.18-1.94,0.28-2.22-1.09-0.21-1.06,0-1.42,1.17-2.06,5.82-3.32,11.58-6.88,15.15-12.83C175.61,129.82,176.12,131.51,177.63,131.78Z" transform="translate(0 -7.04)"/><path class="cls-1" d="M179.45,155.14c0,2.2-6.53,7.57-8.31,7.25a1.12,1.12,0,0,1-.83-1.66,8.65,8.65,0,0,1,1.48-3.25c1.66-1.72,2.42-3.32,1.66-5.82s1.45-3.52,3.17-4.55c0.83-.52,1.35.16,1.43,1A33,33,0,0,0,179.45,155.14Z" transform="translate(0 -7.04)"/><path class="cls-1" d="M106.34,47.87c6.36,3,13.34,4,20,5.87,8.45,2.38,17,4.39,25.44,6.9-4.76-.13-9.33-1.55-13.9-2.69-6.24-1.55-12.46-3.32-18.63-5-3.8-1-7.59-2-11.35-3.11-0.83-.25-1.92-0.61-1.59-2h0v0Z" transform="translate(0 -7.04)"/><path class="cls-1" d="M164.6,168.24c-1.48-2.28-1.1-4.85-2.49-6.76-0.34-.46-0.31-1.18.09-1.27a17.5,17.5,0,0,1,5.2-.83c1.25,0.1,1.28,1.71,1,2.74-0.36,1.4.52,3.82-2.09,3.73C164.25,165.74,165.43,167.41,164.6,168.24Z" transform="translate(0 -7.04)"/><path class="cls-1" d="M180.7,141.47c2.83,2.91,2.87,7.63,6.8,9.75,0.51,0.27.83,0.83,0.37,1.14s-1.59.94-1.89,0.71c-2-1.5-2.07-.19-2.18,1.3a1,1,0,0,1-.91,1.14h-0.21c-1-.13-1-1-0.83-1.66A22.36,22.36,0,0,0,180.7,141.47Z" transform="translate(0 -7.04)"/><path class="cls-1" d="M38.38,37.85c6.39-3.32,12.91-6.09,20.24-2.56C51.65,34.38,44.86,34.8,38.38,37.85Z" transform="translate(0 -7.04)"/><path class="cls-1" d="M44.41,85.86c-0.83-.56-1.25.22-2,0.58,1.76-4.34,2.58-9,5.68-12.84,0.2,4.55-4.26,7.73-3.81,12.35Z" transform="translate(0 -7.04)"/><path class="cls-1" d="M106.34,47.87c-3.17,2.22-5.93-.71-8.94-0.83-1.55,0-3.09-1.08-4.59-1.92,4.59,0.49,8.9,2.49,13.53,2.73h0v0Z" transform="translate(0 -7.04)"/><path class="cls-1" d="M53.91,74.36C53.64,77.44,52,79.87,50,82.13,50.67,79.19,51.5,76.41,53.91,74.36Z" transform="translate(0 -7.04)"/><path class="cls-1" d="M108.83,103.44c-0.64-3.06.61-5.43,2.92-7.42a14.85,14.85,0,0,1-3,7.33Z" transform="translate(0 -7.04)"/><path class="cls-1" d="M187.55,147.09c-2.44-1.07-3.11-3.15-3.13-5.82,3.15,1,2.05,4,3,5.92Z" transform="translate(0 -7.04)"/><path class="cls-1" d="M60,85.81c0.9-3.78,1.66-6.41,4.34-9.25C63.51,80.27,62.07,82.57,60,85.81Z" transform="translate(0 -7.04)"/><path class="cls-2" d="M179.27,126.85S312,116.64,366,155s92.67-32.81,184-22.57,63.67,55.25,239,57.25" transform="translate(0 -7.04)"/><path class="cls-1" d="M830.22,109.86a6.07,6.07,0,0,1,1-.19c1.13,0,2.42-2,3.34-.1,0.81,1.66-.4,2.8-1.83,3.63a2,2,0,0,0-1.36,1.29c1,0.76,2.67-1.3,3.24.75,0.46,1.64-.61,2.62-1.83,3.44a13.29,13.29,0,0,0-3,2.44,14.39,14.39,0,0,1,2-.74c0.83-.18,1.81-1.36,2.52,0a2.29,2.29,0,0,1-.81,3.15c-1.75,1.19-3.54,2.31-5.49,3.57,1.57,0.11,2.57-.86,3.77-1.21,0.84-.24,1.79-1.51,2.52-0.25a2.58,2.58,0,0,1-.78,3.23c-0.72.62-1.77,0.82-2.34,2,0.84,0.77,2.57-1.16,3,.83,0.58,2.56-2.16,2.91-3.06,4.45,0.82,1.11,2.5-1,2.91,1.05,0.5,2.43-1.94,2.81-3,4.52,1.16,0.33,2.43.18,2.35,2.25-0.25,6.38-.15,12.78.11,19.15,0.12,2.9-1.53,4.39-3.48,5.78-1.22.87-3.19,0.32-3.57-.44-1.37-2.75-3.94-4.57-4.95-7.68s-1.29-6.51-4.43-8.56c-1.54-1-.91-3.28,1-3.92,3.25-1.07,4.8-4.62,8.2-5.49,0.71-.18.65-1.09,0.29-1.69a1.62,1.62,0,0,0-2-.64c-1.73.58-3.43,1.28-5.45,2.06,1-2.37,3.13-2.67,4.86-3.49,1.07-.51,2.31-1,2.39-2.32a2.41,2.41,0,0,0-1.55-2.31,2.66,2.66,0,0,0-3.14,1,2.92,2.92,0,0,1-3,1.27c-0.22-1.09,1.46-.6,1.11-2.11a116.38,116.38,0,0,1-32.62,5.13c-11,.14-21.94-0.1-33-3.37,1.74-1.73,3.52-1.21,5.07-1a184,184,0,0,0,38.57.88A104.31,104.31,0,0,0,823,130.51a5,5,0,0,0,1-.92c-2.69-.27-4.85.6-7.06,1s-4.7.79-7,1.27a140.12,140.12,0,0,1-35.53,2.4,96.45,96.45,0,0,1-18.23-2.59,13.93,13.93,0,0,1-1.57-.42,1.21,1.21,0,0,1-1-1.41c0.21-.86.93-0.79,1.58-0.64a25.94,25.94,0,0,0,3.13.82c17,1.76,33.91,2.45,50.77-.92A74.32,74.32,0,0,0,823.9,124c-23.78,5.4-47.55,7.55-71.72,1.58,1.37-2.17,2.79-1.92,4.65-1.51,14.68,3.19,29.45,2.2,44.21.67a77.87,77.87,0,0,0,20.09-4.88c0.45-.17,1.14-0.13,1.18-1.22a157.14,157.14,0,0,1-20.59,3.67,140.17,140.17,0,0,1-50-2,1.81,1.81,0,0,1-.54-0.39c0.26-2.82,2.12-2.08,3.82-1.74,17.32,3.42,34.67,2.93,52,.1A48.18,48.18,0,0,0,822,113.53c-1.2-.15-2.53,0-2.77-1.42-0.21-1.21-1.24-2.62-1.82-2-1.12,1.19-3.89.56-3.6,2.92,0.24,1.93-1,2-2.09,2.13-12,1.6-24,4.82-36.25,1.28a1.12,1.12,0,0,0-1.41.31l1.12,0.58c-0.4.6-1,.17-1.47,0.23-4.14.54-8.24-.22-12.27-0.85-3.59-.56-7.51.12-10.73-2.66-1.22-1.05-2.06.5-2,1.85,0.06,1.79,1.62,2.72,2.52,4-3.27.09-5-.58-3.9-4.67,0.41-1.56-.66-3.75,0-5.81,0.25-.77-0.58-1.75-1.75-2a15.44,15.44,0,0,1-2.78-.86c-0.86-.34-1.63-1-1.17-2s1.33-.37,2-0.16c13,3.73,26.36,4.75,39.83,4.67,9.55-.05,19-0.77,28.31-3.21a3.61,3.61,0,0,1,4.71,2.1,1.24,1.24,0,0,0,1.66.51c0.67-.15,1.39-0.49.84-1.29-0.72-1.06-.3-2.24-0.11-3.13,0.57-2.65-1.13-2.79-2.39-1.89-3.58,2.57-7.77,2.53-11.75,3.19a142.7,142.7,0,0,1-19.74,1.62c-1.2,0-2.64.59-3.51-.93a1,1,0,0,0-.81-0.39c-8,2.91-15.89.31-23.75-.72-4.39-.58-8.87-1.24-12.92-3.36-0.47-.25-1.06-0.3-1.5-0.59-0.79-.5-2.07-1-1.74-2,0.41-1.24,1.7-.49,2.57-0.31,4.55,1,9,2.48,13.63,3.06,18.22,2.27,36.44,3.23,54.5-1.39a8,8,0,0,1,3.52-.32c2.17,0.48,3.13.46,4.14-2.19,0.9-2.35,4.4-2.16,7-2.42l-0.08-.09c-1.23,1-3.07,1-4.09,2.7a12.9,12.9,0,0,0,3.79-1c0.58-.31,1.27-1.26,2-0.47s0.28,1.77-.89,2.34c1.88,0.88,3.17-.44,4.64-0.47,1,0,2.08-1,2.75.41,0.59,1.27,0,2.28-1,3.08-0.59.45-1.17,0.93-2,1.6,1.18,0.57,2.8-.86,3.26.89s-0.61,2.47-1.86,3.34c-0.82.57-2,.94-2.29,2.12-0.62-.12-1.7-0.1-1.78-0.36-1.33-4.85-3.54-1.16-5.37-.57-0.84.27-1.08,0.85-.62,1.78a1.29,1.29,0,0,0,1.83.69C826.3,110.9,828.26,110.39,830.22,109.86ZM815,110a2.9,2.9,0,0,0-2.65-.35,147.41,147.41,0,0,1-19.64,2.53c-13.11.62-26.19,0.74-39.11-2.22-1.67-.38-4.5-2.29-5-0.14-0.72,3,2.76,2.1,4.46,2.41a153.72,153.72,0,0,0,46.59,1.51C804.7,113.14,810,113.09,815,110Zm10.25-4.9a2.38,2.38,0,0,0,3.52-1c0.3-.53-0.47-2.36-1.14-2.63-1.88-.74-3.24.49-4.59,1.87,1.5,0.71,2.77-1.35,3.68,0S825,103.86,825.23,105.1Zm0.27,43.67,0-.45a16.42,16.42,0,0,0-3.45.06c-0.81.18-2.4,0.38-2.1,1.43,0.4,1.4,1.49.22,2.29,0C823.29,149.42,824.4,149.11,825.5,148.77Z" transform="translate(0 -7.04)"/><path class="cls-1" d="M750.23,16.13c-7.52.3-13.93,2.13-19.14,7.08-0.69.65-1.47,1.55-2.47,0.49s-1.69-2.56-.92-4.14C728.86,17.19,731,16,733.32,15a100.36,100.36,0,0,1,36.34-7.58c17.12-.52,34.23-1.24,51.08,2.82,4.84,1.16,9.65,2.49,13.75,5.52,3.54,2.61,3.39,4.53.16,7.48-5.5,5-12.5,6.2-19.29,7.56A187,187,0,0,1,750,32a64.65,64.65,0,0,1-15.34-4c-1.16-.48-2.8-0.68-2.84-2.23,0-1.36,1.27-2.21,2.32-2.92a38.08,38.08,0,0,1,12.75-5.41A9.65,9.65,0,0,0,750.23,16.13Zm12.34-2.24c3.58,0.44,6.57-1,9.65-1.06,15-.06,30.09-0.22,44.87,3.22,5.47,1.27,11.06,2.38,15.45,6.61a3.28,3.28,0,0,0-1.83-3,38.37,38.37,0,0,0-14.19-5.06c-9.2-1.4-18.48-2-27.76-2.61-2.27-.15-4.38-1-6.72-0.85A167.61,167.61,0,0,0,762.57,13.89Z" transform="translate(0 -7.04)"/><path class="cls-1" d="M811,71.84a4.45,4.45,0,0,1-1.52-3.49c-0.11-4.36.51-8.65,0.54-13,0-1.09.23-2.49-1.29-2.46s-0.93,1.38-.86,2.28c0.18,2.35-.93,4.49-1.44,6.67a10.69,10.69,0,0,0,.32,6.74c0.62,1.55.07,2.3-1.32,2.62a40.88,40.88,0,0,1-6.68,1.31c-10.7.62-21.41,1.09-32.12,0-6.13-.63-7.34-2.7-4.86-8.45a2.12,2.12,0,0,0,.11-2.17c-3.76-4.76-2.86-11.13-5.63-16.23a4.42,4.42,0,0,0-.24-0.93c-1.66-1.52-2.54-3.08-1.06-5.29s3.77-1.51,5.62-1.31c10.59,1.16,21.2.76,31.8,0.51,3.67-.09,7.33-0.65,11-1,2.08-.19,4.31-1.73,6.14.87a2,2,0,0,0,3-1.25c0.58-2.2,2.79-1.79,4.36-1.75,1.94,0,.8,1.83,1.09,2.82,1.79,6.12,1.91,12.64,4.28,18.59,1.3,3.25,4.93,5.2,5,9.4,0.34-.28.19-0.08,0,0-5.54,1.73-5.6,1.74-6.95-4.15-1-4.34-2.08-8.6-5.23-12.23-1,.89-0.23,2.25-0.89,3.51-1.46-3.22-1.73-6.47-2.15-9.69-0.1-.78,0-2.12-1.18-1.95-1.47.22-.48,1.42-0.3,2.07,2.3,8.16,1.21,16.47,1.13,24.73,0,1.62.08,1.63,2.68,2.4l-3.42.75Z" transform="translate(0 -7.04)"/><path class="cls-1" d="M810.92,71.77A1.94,1.94,0,0,0,813.56,73c2.62-1.17,5.79-.84,8.06-3.07a3.69,3.69,0,0,1,3.27-1c0.91,0.2,1.93.48,1.86,1.84a1.78,1.78,0,0,1-1.49,1.75c-10.44,4.09-21.33,5.79-32.46,6.25a32,32,0,0,0-3.24.19,20.76,20.76,0,0,1-12.24-2.06,5,5,0,0,0-4.45-.25l5.75,2a71.22,71.22,0,0,1-17.12-.49c-3.85-.52-7.75-0.81-11.52-1.94-0.85-.26-2.21-0.72-2.44.65s1.16,1.26,2.08,1.45c15.17,3.2,30.51,3.41,45.89,2.36a74.33,74.33,0,0,0,15.35-2.27c2.22-.63,5.09-0.67,7.68-1,2-.26,2.95-2,4.78-2.46s3.12-.68,3.73,1.16c0.68,2.07-1.27,1.83-2.39,2.14-7.88,2.2-15.62,5-23.88,5.64-8.52.63-17,.38-25.55,0.34a125.3,125.3,0,0,1-20.93-1.68,52.85,52.85,0,0,1-12.79-3.42c-0.92-.41-2.38-0.56-2-2s1.59-.92,2.72-0.75,3.1,2,3.71.35c0.77-2-1.9-1.67-3-2.38a16.08,16.08,0,0,0-2.67-1.18c-0.77-.3-1.38-0.5-0.68-1.57,0.45-.69.28-1.41,1.67-1.05A127.63,127.63,0,0,0,757.36,74a188.69,188.69,0,0,0,40.53.66c4.46-.41,9.19.15,13.12-2.8Z" transform="translate(0 -7.04)"/><path class="cls-1" d="M839,167.55c0.2,3.32-1.47,6-2.67,8.88-0.22.51-.57,1.42-1.32,1.27-4.35-.9-6,2.51-8.75,4.75s-5.84,5.54-10.46,4.85a4.89,4.89,0,0,0-3.41,1.52c-1.6,1.56-3.48,1.42-5.38,1.47-9.09.24-18.1,1.91-27.23,1.5-12-.54-24-1.73-35.19-6.6-1.78-.77-3.45-1.78-5.16-2.71-0.55-.3-1.31-0.59-1.1-1.4s1.07-1,1.85-1c2.26,0,4.48.16,6.5,1.44,1.75,1.11,2.75.88,2.71-1.57-0.17-11.46-.44-22.92-1.07-34.36-0.21-3.83.3-7.7-.68-11.49a1.15,1.15,0,0,1,.8-1.54c1-.07,1.17.9,1.14,1.63-0.38,10.62.65,21.2,0.67,31.81,0,5.16,1,10.3.34,15.47-0.14,1.2.55,1.63,1.66,1.94a82.52,82.52,0,0,0,19.86,2.92c3.49,0.09,6.87.82,10.32,1,10.69,0.42,21.08-1.72,31.43-4a53.61,53.61,0,0,0,16.25-6.3C834,174.71,837.47,172,839,167.55Z" transform="translate(0 -7.04)"/><path class="cls-1" d="M821.19,90.83c-3.15-.2-5.8,1.55-8.73,2.22-11.71,2.66-23.61,2.92-35.54,3-2,0-2.91-2.34-5-1.55l1.41,0.68v0.55c-3.09-.18-6.21-0.19-9.27-0.58a136.27,136.27,0,0,1-16.5-2.66,29.21,29.21,0,0,1-6.18-2.61c-0.66-.35-1.42-0.74-1-1.73s1.16-.77,1.92-0.59c3.54,0.83,7,1.89,10.62,2.46,19.39,3.08,38.7,3.59,58.15-.36,5.81-1.18,11.33-3.14,17.07-4.4,0.9-.2,1.91.07,3.45-0.51-1.5-.72-2.66.17-3.5-0.85a5.89,5.89,0,0,1,3.64-1.59c0.8-.14,2-1.25,2.46.28,0.39,1.23.5,2.61-1.16,3.26-3.32,1.3-6.61,2.67-9.94,3.93a3,3,0,0,0-1.88,1.13Z" transform="translate(0 -7.04)"/><path class="cls-1" d="M783.25,90.27a149.24,149.24,0,0,1-24.6-1.43,87.19,87.19,0,0,1-16.7-4c-1.16-.4-2.06-1.13-1.68-2.36,0.43-1.39,1.61-.59,2.44-0.35,15.6,4.51,31.55,5.3,47.63,4.42,7.11-.39,14.16-1.31,21.22-2.33,4.71-.68,8.7-2.42,13-3.69,2.24-.66,4.67-0.4,5.72-3.33,0.34-.95,2.32-1.88,3.29-0.51a2.45,2.45,0,0,1-1.09,3.8c-4.63,2.33-9.76,3.23-14.55,5-10.68,3.88-21.64,4.71-32.78,4.83h-1.95Z" transform="translate(0 -7.04)"/><path class="cls-1" d="M821.09,90.9c1.73,1,3.42,1.89,5.34.29a0.89,0.89,0,0,1,1.27.63,0.88,0.88,0,0,1-.44,1.1,13,13,0,0,1-1.71.91,87.36,87.36,0,0,1-26.44,6.76,178.1,178.1,0,0,1-41.73-1A56.54,56.54,0,0,1,743.54,96c-1.18-.51-3.09-1.11-2.8-2.18,0.44-1.63,2.21-.62,3.35-0.32,19.27,5,38.79,5.65,58.46,3.37,5.14-.6,10.06-2.58,15.33-2.54,1.05,0,2.09.12,3.44,0.26-1.23-1.45-2.84-1.39-4.12-2,1.06-1.16,2.79-.84,4-1.76Z" transform="translate(0 -7.04)"/><path class="cls-1" d="M827,29.42c-1.73,1.86-3.2,1.71-4.45,2.54,1.09,0.89,2.24.16,3.28,0.46-3.72.51-7.4,1.24-11.12,1.77-4.8.69-9.65,1.42-14.47,2.1a139.77,139.77,0,0,1-32.88.78c-7.44-.71-14.74-2.16-22.08-3.41-2.2-.37-3.91-1.7-6-2.3A188.69,188.69,0,0,0,827,29.42Z" transform="translate(0 -7.04)"/><path class="cls-1" d="M756.15,140.65l11.11,1.06A164.48,164.48,0,0,0,807,140.57c1.59-.24,4.37-1.3,4.61.38,0.29,2.09-2.61,1.91-4.32,2.21-15.11,2.62-30.25,3.18-45.41.43C759,143.07,757.75,142.58,756.15,140.65Z" transform="translate(0 -7.04)"/><path class="cls-1" d="M810.78,146c-8,4.73-16.79,4.55-25.37,4.56s-17.54,1.21-25.59-3.69C776.82,148.39,793.81,148.53,810.78,146Z" transform="translate(0 -7.04)"/><path class="cls-1" d="M746.5,70.36c-1.68-2-1.25-3.81-1.33-5.44-0.44-9.16-.73-18.32-1.09-27.49,0-.66-0.19-1.45.65-1.56,1.07-.15,1.1.72,1.13,1.52q0.55,15.51,1.11,31A9.52,9.52,0,0,1,746.5,70.36Z" transform="translate(0 -7.04)"/><path class="cls-1" d="M826.14,95.49c1.61-2.1,4.2-2,6.39-2.63,1.77-.49,2.2,1,1.75,2.47-0.61,1.9-3.43,2.39-4.87.93-1-1-2.2-.69-3.34-0.86Z" transform="translate(0 -7.04)"/><path class="cls-1" d="M827.28,89.79c1-1.55,3-1.58,4.67-2.15,0.87-.3,2.06-0.65,2.32.78,0.37,2-1.12,2.95-2.56,3.65-1.21.59-1.43,0-1.52-1.35C830,88.25,827.85,91.76,827.28,89.79Z" transform="translate(0 -7.04)"/><path class="cls-1" d="M748.82,120.87l0.53,9.78C747.15,128.6,747,122.63,748.82,120.87Z" transform="translate(0 -7.04)"/><path class="cls-1" d="M832.13,74.73c0.5-2.39-.11-3.76-3-2.8,1.67-.88,3.33-2,4.59-0.49C834.35,72.25,834.49,74.22,832.13,74.73Z" transform="translate(0 -7.04)"/><path class="cls-1" d="M741.44,110.12c1.76-.18,3.22-0.65,4.28.8a0.92,0.92,0,0,1-.43,1.35C743.73,112.44,742.52,111.76,741.44,110.12Z" transform="translate(0 -7.04)"/><path class="cls-1" d="M736.08,175.29c-3.11-.63-3.25-3-3.36-5.32Z" transform="translate(0 -7.04)"/></svg>