<svg id="Layer_1" data-name="Layer 1" xmlns="http://www.w3.org/2000/svg" xmlns:xlink="http://www.w3.org/1999/xlink" viewBox="0 0 840.06 198.86"><defs><style>.cls-1{fill:#fff;}.cls-2,.cls-3{fill:none;stroke-miterlimit:10;}.cls-2{stroke:url(#linear-gradient);}.cls-3{stroke-width:2px;stroke:url(#linear-gradient-2);}</style><linearGradient id="linear-gradient" x1="229.21" y1="49.85" x2="839.01" y2="49.85" gradientTransform="matrix(1, 0, 0, -1, 0, 200)" gradientUnits="userSpaceOnUse"><stop offset="0" stop-color="#fff"/><stop offset="0.37" stop-color="#fff" stop-opacity="0.99"/><stop offset="0.51" stop-color="#fff" stop-opacity="0.97"/><stop offset="0.6" stop-color="#fff" stop-opacity="0.92"/><stop offset="0.68" stop-color="#fff" stop-opacity="0.85"/><stop offset="0.75" stop-color="#fff" stop-opacity="0.77"/><stop offset="0.8" stop-color="#fff" stop-opacity="0.66"/><stop offset="0.86" stop-color="#fff" stop-opacity="0.53"/><stop offset="0.91" stop-color="#fff" stop-opacity="0.39"/><stop offset="0.95" stop-color="#fff" stop-opacity="0.22"/><stop offset="0.99" stop-color="#fff" stop-opacity="0.04"/><stop offset="1" stop-color="#fff" stop-opacity="0"/></linearGradient><linearGradient id="linear-gradient-2" x1="228.06" y1="49.84" x2="840.06" y2="49.84" xlink:href="#linear-gradient"/></defs><title>tin-can</title><path class="cls-1" d="M53.35,63c2.37,1.22,2,3.26,1.49,5.27-0.8,3.31-1.77,6.58-1.48,10.43,4.3-4.17,3.58-10.46,7.71-14.57,1.16,5.29-2.45,10-1,15.63,3.46-4.25,3.78-9.39,6.64-14.55,1.86,5.92-1.74,10.68-.49,16.36,4.29-7.65,6.29-15.68,10.9-22.53-2.06,7-4.74,13.88-4,21.46C77.21,74,78.85,66.19,83.8,60c-2.54,7.29-5.23,14.52-4.3,22.47C83.28,75.74,85,68,90,61.79c-2.25,7.11-4.69,14.14-4.82,23,4.95-7.26,5.94-15.2,11.35-21-1.06,3.26-2.32,6.47-3.12,9.8-0.83,3.53-1.83,7.1-1.37,11.53,4.67-6.19,4.8-14.13,10.52-19C100.44,72.6,98,79,98.67,86.44c4.21-6.27,5.25-13.81,10.7-20.43-0.66,6.36-4.56,10.49-4.19,15.75,0.08,1.18-1.36,2.82.51,3.38,1.47,0.45,1.58-1.3,2.05-2.31,1.92-4.08,3.88-8.13,5.77-12.22a2.22,2.22,0,0,1,2.13-1.72c-0.64,6-6.41,11.05-3.39,17.91,4.21-4,4-10.5,8.53-14.78,0.64,2.34-.35,4-1.08,5.52-0.56,1.19-1.39,2.3-1.34,3.65s-1.25,3.58,1,4.17c2,0.54,2.39-1.54,3-3A21.4,21.4,0,0,1,128,73.95c-4,7-3.65,14.78-4.4,22.41,1.43-3.63,3.45-7.17,4.13-10.94,0.57-3.17,1.81-1.9,3.3-1.45l-0.09-.1c0.6,4.1-.92,8.11-0.56,13.31,2.34-7.89,7.45-13.23,9.38-20.59,2,2.29.92,3.95,0.17,5.41a16.12,16.12,0,0,0-2.14,7c0,1.71-.77,5.27,3.29,2.29,2.34-1.71,3.72,1.85,5.9,2.47,1.83,0.52,3.73,1.58,5.7,1.8,3.19,0.35,6.31.38,8.84,2.95a4.07,4.07,0,0,0,3.67.84c3.5-1.81,6.38,1,9.58.89,2.06-.06,1.69,1.6,1.95,2.78,0.16,0.74.29,1.49,1.17,1.63,1.07,0.17,1.48-.53,1.86-1.42,1.47-3.49,2.41-7.26,4.75-10.31C194.29,80.2,201,65.14,214,54.84a55.77,55.77,0,0,1,17.18-9.3C238.92,43,249.4,48,254.56,56.33c7.69,12.51,9.06,26.35,8.29,40.53-0.63,11.64-2.18,23.19-5.88,34.33-1,2.9-.67,6.68-4.78,7.78-0.39.1-.74,1.26-0.72,1.91,0.24,6.74.15,7.12-4.15,14-1.18-1.32,1.29-2.31-.06-3.62-1.07,3.75-4,2.66-5.53,1.21-2.32-2.13-5.19-3.09-7.64-4.82-4-2.81-6.44-6.76-8.28-11.16l-0.1.11c5.49-1.57,2.6-6.36,3.6-9.75,1.87,3.65,1.31,7.56,1.94,11.46,1.81-3.4,4.59-6.37,2.74-10.72-1.86,1.16.7,2.93-.9,3.92-2.06-3.42-1.7-3.78,1.1-6.42,3.63-3.42,6.81-7.41,6.31-12.87-0.23-2.49,1.43-2.89,2.93-3.7s2.45-.3,3.17,1.27c0-5.08.68-10.27-.17-15.2-1-6-1.77-12.3-4.6-17.9-5.1-10.09-15.94-10.88-24-6.17-11.8,6.87-18.09,18.23-23.44,30.22-0.61,1.36-.21,2.48.34,3.75s0.41,1.37-1.51,1.43a1.42,1.42,0,0,0-.72.16c-1.24.84-3.44,10.42-2.56,11.85,1.55,2.55,1.39,4.65-1.14,6.42-3,2.09-2.26,5.46-2.8,8.54-1.41-.37-1.13-1.51-1.35-2.36-0.41-1.55.44-4.34-1.93-4.19-2.71.17-1.61,3-1.59,4.68,0.08,5.69.36,11.38,0.69,17.06,0.16,2.85.1,5.47-2.1,7.73-1.82,1.88-1.67,4.44-.89,6.66,2.4,6.81,5.77,13.21,11.22,18,2.53,2.22,5.24,5.51,9.56,3.84-1.24-3.07-1.24-3.07,4.09-5.47-3.79-.5-7.15,0-10.24-1.7-2-1.1-3.82-2.33-4.73-4.34a96.77,96.77,0,0,0-6.22-12.46,2.09,2.09,0,0,1-.29-1.66c2.5-5.42.92-11.27,2.07-16.92a38.63,38.63,0,0,0,8.13,23,18.17,18.17,0,0,0,11.82,7.45c1.16,0.19,2.65.3,3-1.07s-0.92-2-2.21-1.94c-4.07.23,1-3.81-2-4.35-0.29-.05,1.21-1.22,2.14-1.34,9.84-1.19,15.93-7.72,21.17-15.2,1.77-2.52,3.47-2.36,4.56-.28,2.14,4.08,6.58,4,9.71,6.26,1.06,0.75,2.85,1.29,2.63,2.79-0.47,3.22,1.87.67,2.9,1.65-8.39,13.61-16.37,27-31.64,35-12.95,6.79-24.64,6.54-37.48,1-8.63-3.72-17.79-6.23-26.72-9.27-10.87-3.69-21.6-7.89-32.65-10.91-12-3.27-23.27-8.28-35.19-11.67-13.92-4-27.36-9.6-41.07-14.34-4.39-1.51-7-3.61-5-8.63a11.88,11.88,0,0,1,1.74,0c7.79,1.13,14.76,7.56,23.35,3.65a0.92,0.92,0,0,1,.71.41c1.88,3.18,4.94,3.83,8.27,4,0.73,0,1.23,1.74,2,.47,0.29-.45-0.34-1.48-0.88-3.44,2.88,3.39,6.59,4.46,7.32,9,0.32-3.91,1.71-3.54,3.56-1.63a7.87,7.87,0,0,0,6.82,2.32c3.23-.41,5.06,1.05,6.66,3.53,0.67,1,2.07,3.69,2.26-.35,0-1.07.79-.83,1.57-0.52,1.52,0.62,1.79,6.72,4.77,1.13a4.2,4.2,0,0,1,1.37.93A3.17,3.17,0,0,0,108.8,161c4,0.06,7.07,2.94,11,3.43,3.14,0.39,6.3,1.07,8.28,4a2.38,2.38,0,0,0,.73-0.21c0.26-1.26-1.65-2.12-.6-3.73,2.14,2.45,5.51,3.65,5.73,7.27,2.21-.25,1.36-2.55,2.68-3.28,2,2.07,5.12,2.84,5.26,6.24,1.54-.61,2-2.87,3.59-1.75a35.31,35.31,0,0,0,11.93,5.8c4.61,1.26,9.23,4,14.06,4.44,3.54,0.31,6.27.81,8.39,3.66a3.93,3.93,0,0,0,1.12-.3c-2.25-4.9-4.65-9.7-5.87-14.94a2.81,2.81,0,0,0-2.22-1.89c-5.94-2-11.79-4.31-17.83-6-15-4.13-29.61-9.64-44.48-14.24-9.34-2.89-18.76-6-28-9.31-6.84-2.47-14-4.46-21.06-6.48-12.7-3.64-25.23-7.95-37.69-12.37-4.22-1.5-7.18.9-9.39,2.9-1.82,1.65,1.87,3.58,3,5.47A14.45,14.45,0,0,0,20.8,133c4.43,4.09,9.92,5.79,15.62,7.09-8.73,1.17-14.89-3.58-21.07-8.74C3.81,121.74,1.22,108.55.28,94.68a113.67,113.67,0,0,1,1-24.89c0.15-1,.28-2.63.85-2.85,3.08-1.17,2.44-3.24,1.81-5.52-0.5-1.82,1.23-2.13,2.25-2.76,2-1.22,1.39,1,2.06,1.63,2.48,2.29,5.68,3.23,8.81,4.16a57.74,57.74,0,0,0,6,1.1c-1.3-2.11-4-2.17-5.32-4.64,4.37,0.17,6.37-4,10.77-4.15,4.94-.18,6.22.1,6,5a1,1,0,0,0,0,.43c2.25,2.83,5.81,2.23,8.73,3.31,2.08,0.77,2.74-.6,3.44-2.26a84.53,84.53,0,0,1,6.26-12.33,97.61,97.61,0,0,0-6.37,30.21c3.31-6.4,4.72-12.48,6.9-18.27ZM23.63,84.55c-6.55-.14-12.26-1.68-18-0.41C9,85.69,13,83.81,16.46,86.9c-2.87,1.14-5.35,1.67-7.8,1.19-3.62-.71-4.12.85-4.11,4,0,6.64,1.66,13,2.94,19.4,1,5,10.49,6.91,14.59,3.83,2-1.54,1.41-5.56,6.37-5.09,3.66,0.35,3.85-1.55,7.15,1.39-6.14-.5-7.58,6-12.82,7.45C36.41,124.4,50,127.8,63.26,132.16c9,3,18.1,5.56,27.1,8.5,11.54,3.77,23,7.78,34.52,11.58,15.32,5.05,30.71,9.9,46,15.08,2.84,1,3.51.62,2.84-2.17-2.28-9.53-1.42-19.22-1.23-28.84,0.09-4.13,1.42-6.81-4.81-8.75-8.81-2.74-17.66-5.66-26.45-8.64-3.44-1.16-7.52-1.21-7.26-6.69-2.74,2.41-2.56,6-5.21,8.29-1.65-3.78.23-7.65-1.41-11.47-2.35,3.11-2.6,6.83-5.48,9.76-1.15-4.36.83-8.46-1.15-12.36-1.17,2.89-2.2,5.46-3.25,8-0.28.68-.67,1.53-1.45,1.43-1.17-.14-1-1.23-1-2.09,0-2.65.59-5.37-.49-8.29-2.61,2.8-2.52,6.68-5.85,9.75v-8.74a1.21,1.21,0,0,0-.67-1.45c-0.89-.27-1.21.29-1.61,1-1.14,2-1.5,4.48-3.77,6.4-1.07-4.7.19-9-.38-13.83-1.71,4.44-2.77,8.35-5,12.15-2.46-3-.38-6.71-2.45-9.86-1,2.18-1.82,3.85-2.55,5.56-0.31.71-.64,1.47-1.47,1.32s-1-1-1.05-1.75l-0.6-6c-3,1.34-2.4,4.89-5,6.36-1.33-2.48-.43-5.62-3-7.28C80,101,80,103.45,77.54,104.7l-1.48-8.09c-2.68,1.32-1.87,4.75-4.58,6.24a53.5,53.5,0,0,0-.83-5.36c-0.21-.81,1.14-2.24-0.73-2.42-1.3-.13-1.59,1-2,2-0.27.66-.73,1.24-1,1.9s-0.4,2-1.53,1.77a1.7,1.7,0,0,1-1.26-2.38c1.05-1.83-.33-1.72-1.29-2.25-1.44-.81-1.75,0-2.11,1.12-0.25.78-.61,2.07-1.65,1.45s-2.78-.56-2.38-2.56a1.53,1.53,0,0,0-.86-2H55.7c-1.9.23-.73,3.31-3.13,3.1-3.54-.31-1.4-3.89-3.2-5.79-0.84,3-3.84,2.79-5,5.25-0.82-2.33.47-4.31-.74-5.93-1.59-.53-1,2.19-2.88,1.49,0.89-4.79-3.06-5.47-6.15-6.5-4.4-1.47-9-2.43-13.47-3.57a2.2,2.2,0,0,0-.74.57Zm229.6,25.79c1-2.45-.34-4.76.08-7,2.71-14.1.65-27.47-6.67-39.74-5.5-9.21-15.63-11.88-25.52-7.71a43,43,0,0,0-15.85,12c4.26,0.31,6.93-2.23,9.75-4.52,8.8-7.14,23.42-5,28.52,4.78A60.2,60.2,0,0,1,250,94.21c0.18,5.42-1.39,11.43,3.27,16.12h0ZM2.75,84c-2.12,5.7-1.82,14.1.92,18.61C2.7,95.72,2.87,89.87,2.75,84Zm235.49,56.36c0,0.87-.22,2.47.66,2.14,2.6-1,2-4.1,3.28-6.06,0.34-.51.35-1.71-0.72-1.51-3.05.59-2.36,3.53-3.22,5.44h0Zm4.41,5.93c2.78-4.18,5.36-8.57,5.39-13.87Zm8.79-13.69c-1.86,4.36-3.94,7.64-4.4,12,2.71-3.54,3.68-7.22,4.4-12h0ZM184.8,101.7c1.26-1.85,2.34-3.48,1.46-5.61a1.27,1.27,0,0,0-1.07-.18c-1.08,1.55-1.85,3.21-1.15,5.17a3.8,3.8,0,0,0,.76.63h0Z" transform="translate(0 0)"/><path class="cls-1" d="M50.32,44.42c1.48-.56,1.47-2.64,3.63-2.14-1,2.88-.62,6.72-5.72,4.78a5.43,5.43,0,0,0-4.25.63c-3.9,1.94-7.89-.6-11.87.25-1,.21-2.29-1.66-2.71-3.11-1.27-4.36-3.94-6.46-8.62-5.7-0.62.1-1.44-.52-1.83,0.37a1.77,1.77,0,0,0,.79,2.26c1.58,1.14,2.44,2.82,3.35,4.81-2.81-2.65-4.68,5.72-7.62.26-1.66,1,1,3.37-1.37,4.06a1.29,1.29,0,0,1-1.1-.33,6,6,0,0,1,.39-4.62c2.22-4.82,4.54-9.64,6.78-14.48,0.66-1.44,1.55-1.17,2.79-.81,5.19,1.53,10.57,2.13,15.9,3C45.3,34.75,49.7,39,50.32,44.42Z" transform="translate(0 0)"/><path class="cls-1" d="M223.63,76.47c7.82,0.14,14.3,6.86,14.15,14.33,0,2-4.81,4.38-7.09,2.61-6.7-5.23-12.72-1-19,.49-2.54.59-5,1.47-7.57,2.08a2.6,2.6,0,0,1-2-.48c-0.73-.61-0.06-1.29.32-1.91,3.76-6.15,8.13-11.72,14.33-15.67C219.09,76.47,221.5,76.52,223.63,76.47Z" transform="translate(0 0)"/><path class="cls-1" d="M213.81,118.12a19.45,19.45,0,0,1-1.69-3.21c-0.36-1.29,1.33-2.28,1.54-1.86,1.2,2.48,5.39,8.86,3.7,9.7-2.29,1.11-2.28-1.72-3.89-2.25-1.49,1.94,1.06,3.35.79,5.14-4.84.3-8,4-11.7,6.25s-6.19,4.79-9.51,5.36c-1.27.22-2.34,0.34-2.67-1.31-0.25-1.28.06-1.71,1.41-2.48,7-4,13.94-8.28,18.23-15.44C211.38,115.76,212,117.79,213.81,118.12Z" transform="translate(0 0)"/><path class="cls-1" d="M216,146.24c0,2.65-7.86,9.11-10,8.73-1.21-.21-1.26-1.18-1-2a10.41,10.41,0,0,1,1.78-3.91c2-2.07,2.91-4,2-7s1.75-4.24,3.81-5.48c1-.63,1.62.19,1.72,1.18A39.73,39.73,0,0,0,216,146.24Z" transform="translate(0 0)"/><path class="cls-1" d="M128,17.12c7.66,3.63,16.06,4.78,24.11,7.06,10.17,2.87,20.47,5.29,30.62,8.3C177,32.32,171.5,30.61,166,29.24c-7.51-1.86-15-4-22.43-6C139,22,134.44,20.82,129.91,19.5c-1-.3-2.31-0.73-1.91-2.35h0v0Z" transform="translate(0 0)"/><path class="cls-1" d="M198.13,162c-1.78-2.75-1.32-5.84-3-8.14-0.41-.55-0.37-1.42.11-1.53a21.06,21.06,0,0,1,6.26-1c1.5,0.12,1.54,2.06,1.23,3.3-0.43,1.69.63,4.6-2.52,4.49C197.71,159,199.13,161,198.13,162Z" transform="translate(0 0)"/><path class="cls-1" d="M217.51,129.78c3.41,3.5,3.46,9.18,8.18,11.74,0.61,0.33,1,1,.44,1.37s-1.91,1.13-2.27.86c-2.4-1.81-2.49-.23-2.62,1.57a1.24,1.24,0,0,1-1.1,1.37h-0.25c-1.17-.16-1.17-1.15-1-2A26.92,26.92,0,0,0,217.51,129.78Z" transform="translate(0 0)"/><path class="cls-1" d="M46.2,5.06c7.69-4,15.54-7.33,24.36-3.08C62.17,0.88,54,1.39,46.2,5.06Z" transform="translate(0 0)"/><path class="cls-1" d="M53.46,62.85c-1-.68-1.51.27-2.36,0.7,2.12-5.23,3.11-10.88,6.84-15.45,0.24,5.48-5.13,9.31-4.59,14.87Z" transform="translate(0 0)"/><path class="cls-1" d="M128,17.12c-3.81,2.67-7.14-.86-10.76-1-1.87,0-3.72-1.3-5.52-2.31,5.52,0.59,10.71,3,16.28,3.29h0v0Z" transform="translate(0 0)"/><path class="cls-1" d="M64.9,49c-0.33,3.71-2.33,6.64-4.68,9.35C61,54.82,62,51.47,64.9,49Z" transform="translate(0 0)"/><path class="cls-1" d="M131,84c-0.77-3.68.73-6.54,3.52-8.93a17.87,17.87,0,0,1-3.62,8.82Z" transform="translate(0 0)"/><path class="cls-1" d="M225.75,136.55c-2.94-1.29-3.74-3.79-3.77-7,3.79,1.2,2.47,4.84,3.67,7.13Z" transform="translate(0 0)"/><path class="cls-1" d="M72.28,62.79c1.08-4.55,2-7.71,5.23-11.13C76.45,56.12,74.72,58.88,72.28,62.79Z" transform="translate(0 0)"/><path class="cls-2" d="M229.27,126.85S312,116.64,366,155s92.67-32.81,184-22.57,113.67,40.25,289,42.25" transform="translate(0 0)"/><path class="cls-3" d="M839,175.67c-112.79-1.29-163.17-14.36-207.62-25.9-25.15-6.53-48.91-12.7-81.48-16.35-42.85-4.81-73.63,8.24-100.79,19.76-30.57,13-54.71,23.2-83.68,2.63-53.07-37.69-135.2-28.06-136-28l-0.25-2c0.83-.1,83.74-9.82,137.43,28.31,28,19.92,51.74,9.88,81.74-2.84,27.38-11.61,58.42-24.77,101.79-19.9,32.71,3.67,56.54,9.86,81.76,16.4,44.34,11.51,94.59,24.55,207.14,25.84Z" transform="translate(0 0)"/></svg>