<svg width="430" height="256" xmlns="http://www.w3.org/2000/svg">
 <defs>
  <style>.cls-1{fill:#fff;}.cls-2{fill:none;stroke:#fff;stroke-miterlimit:10;stroke-width:2px;}</style>
 </defs>
 <title>tin-can</title>
 <g>
  <title>background</title>
  <rect fill="none" id="canvas_background" height="258" width="432" y="-1" x="-1"/>
 </g>
 <g>
  <title>Layer 1</title>
  <g stroke="null" opacity="0.15" id="svg_36">
   <path stroke="null" id="svg_1" d="m60.378941,115.204259c1.75522,0.928688 1.476613,2.405301 1.105138,3.891202c-0.59436,2.442449 -1.30945,4.857037 -1.095852,7.708108c3.176112,-3.083243 2.64676,-7.726682 5.692856,-10.763491c0.854393,3.909775 -1.810941,7.429502 -0.74295,11.552875c2.553891,-3.138965 2.786063,-6.937297 4.903471,-10.754204c1.374458,4.374119 -1.281589,7.893846 -0.362188,12.072941c3.166825,-5.655708 4.643439,-11.580736 8.051723,-16.642084c-1.523048,5.172791 -3.501153,10.215565 -2.953227,15.8527c3.018235,-4.801316 4.234816,-10.568466 7.893846,-15.146897c-1.857375,5.386389 -3.863341,10.726343 -3.176112,16.604937c2.786063,-4.968479 4.067652,-10.689196 7.754543,-15.276913c-1.662351,5.256373 -3.464005,10.447737 -3.556874,16.994986c3.65903,-5.367815 4.392693,-11.227835 8.35819,-15.518372c-0.705803,2.423875 -1.680925,4.792029 -2.275285,7.253051c-0.612934,2.609613 -1.355884,5.247086 -1.01227,8.516067c3.454718,-4.569144 3.547587,-10.43845 7.773116,-14.041759c-1.560195,4.792029 -3.333989,9.519049 -2.869645,15.016881c3.111104,-4.643439 3.881915,-10.215565 7.903133,-15.091176c-0.492204,4.69916 -3.371136,7.754543 -3.09253,11.636457c0.055721,0.872966 -1.002983,2.080261 0.380762,2.49817c1.086565,0.334328 1.170147,-0.928688 1.513761,-1.708785c1.420892,-3.018235 2.869645,-6.00861 4.262677,-9.026845a1.643777,1.643777 0 0 1 1.569482,-1.272302c-0.473631,4.42984 -4.736307,8.163165 -2.507457,13.2338c3.111104,-2.953227 2.953227,-7.754543 6.30579,-10.921368c0.473631,1.727359 -0.260033,2.953227 -0.798671,4.076939a6.017897,6.017897 0 0 0 -0.993696,2.693194c0,0.993696 -0.928688,2.64676 0.74295,3.083243c1.476613,0.399336 1.764507,-1.142286 2.219564,-2.219564a15.787691,15.787691 0 0 1 4.169808,-6.212921c-2.953227,5.172791 -2.693194,10.921368 -3.250407,16.558502c1.058704,-2.683908 2.544604,-5.29352 3.055383,-8.079583c0.417909,-2.340293 1.33731,-1.402318 2.442449,-1.067991l-0.065008,-0.074295c0.44577,3.027522 -0.677942,5.990036 -0.417909,9.834803c1.727359,-5.832159 5.507118,-9.779082 6.92801,-15.211905c1.476613,1.690212 0.677942,2.916079 0.130016,3.993357a11.915064,11.915064 0 0 0 -1.578769,5.172791c0,1.263015 -0.5665,3.891202 2.433162,1.690212c1.727359,-1.263015 2.786063,1.365171 4.355545,1.857375c1.355884,0.380762 2.786063,1.170147 4.206955,1.328023c2.358867,0.260033 4.643439,0.278606 6.500814,2.182416a3.008948,3.008948 0 0 0 2.711768,0.622221c2.581752,-1.33731 4.717734,0.74295 7.076601,0.659368c1.523048,0 1.244442,1.179433 1.439466,2.0524a1.18872,1.18872 0 0 0 0.86368,1.207294c0.789385,0.130016 1.095852,-0.390049 1.374458,-1.049417c1.086565,-2.581752 1.78308,-5.367815 3.51044,-7.615239c7.234477,-9.39832 12.19367,-20.523999 21.796301,-28.139238a41.205875,41.205875 0 0 1 12.695161,-6.872289c5.720716,-1.857375 13.465972,1.857375 17.273592,7.968141c5.683569,9.286877 6.695839,19.502442 6.129339,29.950179a96.490656,96.490656 0 0 1 -4.327685,25.306741c-0.74295,2.145269 -0.492204,4.931332 -3.529013,5.748577a1.857375,1.857375 0 0 0 -0.529352,1.411605c0.176451,4.977766 0.111443,5.256373 -3.06467,10.345581c-0.872966,-0.975122 0.928688,-1.708785 0,-2.674621c-0.789385,2.786063 -2.953227,1.968818 -4.086226,0.928688c-1.718072,-1.569482 -3.83548,-2.284572 -5.646421,-3.556874a18.100124,18.100124 0 0 1 -6.120052,-8.246747l-0.074295,0.083582c4.058365,-1.16086 1.922384,-4.69916 2.656047,-7.206617c1.383745,2.693194 0.928688,5.572126 1.430179,8.469632c1.33731,-2.516744 3.38971,-4.708447 2.024539,-7.921706c-1.374458,0.854393 0.520065,2.163842 -0.668655,2.897506c-1.523048,-2.526031 -1.253728,-2.786063 0.817245,-4.745594c2.683908,-2.526031 5.033488,-5.479258 4.643439,-9.509762c-0.167164,-1.857375 1.058704,-2.135982 2.163842,-2.730342s1.810941,-0.222885 2.340293,0.928688c0,-3.714751 0.501491,-7.587379 -0.130016,-11.227835c-0.74295,-4.42984 -1.30945,-9.091853 -3.398997,-13.224513c-3.770472,-7.429502 -11.77576,-8.042436 -17.728649,-4.559857c-8.720378,5.079922 -13.363816,13.465972 -17.320026,22.288506a3.166825,3.166825 0 0 0 0.250746,2.786063c0.408623,0.928688 0.306467,1.01227 -1.114425,1.058704a1.049417,1.049417 0 0 0 -0.529352,0.120729c-0.928688,0.622221 -2.544604,7.698821 -1.857375,8.757525c1.142286,1.857375 1.030843,3.436145 -0.845106,4.745594c-2.219564,1.541622 -1.671638,4.030505 -2.070974,6.30579c-1.04013,-0.269319 -0.835819,-1.114425 -0.993696,-1.745933c-0.306467,-1.142286 0.325041,-3.203973 -1.430179,-3.09253c-2.005966,0.130016 -1.18872,2.219564 -1.170147,3.454718c0.055721,4.206955 0.269319,8.404624 0.510778,12.602293c0.120729,2.108121 0.074295,4.039792 -1.550909,5.71143c-1.346597,1.393032 -1.235155,3.278268 -0.659368,4.922045c1.773794,5.033488 4.262677,9.760508 8.293181,13.298808c1.857375,1.643777 3.872628,4.067652 7.067314,2.841784c-0.928688,-2.265998 -0.928688,-2.265998 3.018235,-4.039792c-2.786063,-0.371475 -5.284233,0 -7.568805,-1.253728a7.429502,7.429502 0 0 1 -3.491866,-3.203973a71.508956,71.508956 0 0 0 -4.597004,-9.203295a1.541622,1.541622 0 0 1 -0.213598,-1.225868c1.857375,-4.002644 0.677942,-8.35819 1.532335,-12.500137a28.538574,28.538574 0 0 0 6.00861,16.994986a13.428825,13.428825 0 0 0 8.729665,5.507118c0.854393,0.139303 1.959531,0.222885 2.219564,-0.789385s-0.677942,-1.476613 -1.63449,-1.430179c-3.008948,0.167164 0.74295,-2.786063 -1.476613,-3.21326c-0.213598,0 0.928688,-0.928688 1.578769,-0.993696c7.271625,-0.882253 11.766474,-5.702143 15.639101,-11.227835c1.30945,-1.857375 2.563178,-1.745933 3.371136,-0.204311c1.578769,3.018235 4.857037,2.953227 7.178756,4.643439c0.780098,0.557213 2.108121,0.928688 1.940957,2.061687c-0.343614,2.377441 1.383745,0.492204 2.145269,1.216581c-6.203634,10.057688 -12.072941,19.948213 -23.37507,25.863953c-9.565484,5.014914 -18.20228,4.829176 -27.693468,0.74295c-6.380085,-2.786063 -13.140931,-4.643439 -19.743901,-6.853715c-8.033149,-2.730342 -15.954855,-5.832159 -24.145881,-8.06101c-8.868968,-2.414588 -17.19001,-6.120052 -26.003257,-8.618222c-10.280573,-2.953227 -20.217532,-7.095174 -30.340228,-10.596327c-3.24112,-1.114425 -5.172791,-2.665334 -3.714751,-6.380085a8.776099,8.776099 0 0 1 1.281589,0c5.757864,0.835819 10.902794,5.572126 17.255018,2.693194a0.677942,0.677942 0 0 1 0.520065,0.306467c1.393032,2.34958 3.649743,2.786063 6.110765,2.953227c0.538639,0 0.928688,1.281589 1.476613,0.343614c0.213598,-0.334328 -0.250746,-1.095852 -0.650081,-2.544604c2.126695,2.507457 4.866324,3.296841 5.404963,6.649404c0.232172,-2.888219 1.263015,-2.618899 2.628186,-1.207294a5.813585,5.813585 0 0 0 5.005627,1.690212c2.386727,-0.306467 3.714751,0.780098 4.922045,2.609613c0.492204,0.74295 1.532335,2.730342 1.671638,-0.260033c0,-0.789385 0.585073,-0.612934 1.16086,-0.380762c1.123712,0.455057 1.318737,4.968479 3.519727,0.835819a3.101817,3.101817 0 0 1 1.01227,0.687229a2.340293,2.340293 0 0 0 2.135982,1.179433c2.953227,0 5.219225,2.173129 8.126018,2.535318c2.321719,0.287893 4.643439,0.789385 6.120052,2.953227a1.75522,1.75522 0 0 0 0.538639,-0.157877c0.195024,-0.928688 -1.216581,-1.569482 -0.44577,-2.786063c1.578769,1.810941 4.067652,2.693194 4.234816,5.367815c1.63449,-0.185738 1.002983,-1.857375 1.978105,-2.423875c1.476613,1.532335 3.779759,2.098834 3.881915,4.643439c1.142286,-0.455057 1.476613,-2.117408 2.656047,-1.290876a26.086838,26.086838 0 0 0 8.813247,4.28125c3.408284,0.928688 6.816568,2.953227 10.392016,3.278268c2.618899,0.232172 4.643439,0.59436 6.203634,2.702481a2.906793,2.906793 0 0 0 0.826532,-0.222885c-1.662351,-3.621882 -3.436145,-7.169469 -4.336972,-11.042097a2.080261,2.080261 0 0 0 -1.643777,-1.393032c-4.392693,-1.476613 -8.711091,-3.185399 -13.178079,-4.42984c-11.079245,-3.055383 -21.879883,-7.123035 -32.866259,-10.522032c-6.90015,-2.135982 -13.865308,-4.42984 -20.691163,-6.881576c-5.052061,-1.857375 -10.345581,-3.296841 -15.564806,-4.792029c-9.379746,-2.693194 -18.638763,-5.869306 -27.860632,-9.138287c-3.120391,-1.105138 -5.302807,0.668655 -6.937297,2.145269c-1.346597,1.216581 1.383745,2.64676 2.219564,4.039792a10.679909,10.679909 0 0 0 2.488883,2.433162c3.268981,3.018235 7.327346,4.28125 11.543589,5.237799c-6.45438,0.86368 -11.00495,-2.64676 -15.564806,-6.500814c-8.50678,-7.04874 -10.364155,-16.809248 -11.088532,-27.024813a83.981232,83.981232 0 0 1 0.724376,-18.415878c0.111443,-0.74295 0.204311,-1.940957 0.631508,-2.108121c2.275285,-0.86368 1.801654,-2.396014 1.33731,-4.076939c-0.371475,-1.346597 0.928688,-1.569482 1.662351,-2.043113c1.476613,-0.928688 1.030843,0.74295 1.523048,1.207294c1.857375,1.690212 4.197669,2.386727 6.500814,3.073956a42.663915,42.663915 0 0 0 4.42984,0.817245c-0.928688,-1.560195 -2.953227,-1.60663 -3.928349,-3.426858c3.231833,0.130016 4.708447,-2.953227 7.958854,-3.06467c3.649743,-0.130016 4.597004,0.074295 4.42984,3.714751a0.74295,0.74295 0 0 0 0,0.315754c1.662351,2.089547 4.290537,1.643777 6.45438,2.442449c1.532335,0.5665 2.024539,-0.44577 2.544604,-1.671638a62.45425,62.45425 0 0 1 4.643439,-9.110427a72.121889,72.121889 0 0 0 -4.708447,22.288506c2.442449,-4.727021 3.491866,-9.221869 5.098496,-13.50312l-0.092869,0.130016zm-21.954178,15.926995c-4.838463,-0.102156 -9.054705,-1.244442 -13.298808,-0.306467c2.488883,1.142286 5.44211,-0.241459 8.005288,2.043113a10.14127,10.14127 0 0 1 -5.767151,0.882253c-2.674621,-0.520065 -3.046096,0.631508 -3.036809,2.953227c0,4.903471 1.225868,9.602631 2.173129,14.329652c0.74295,3.714751 7.754543,5.107783 10.782065,2.786063c1.476613,-1.142286 1.04013,-4.1048 4.708447,-3.714751c2.702481,0.260033 2.841784,-1.142286 5.284233,1.030843c-4.531996,-0.371475 -5.572126,4.42984 -9.472615,5.507118c10.066975,3.937636 20.115376,6.45438 29.913032,9.667639c6.649404,2.219564 13.373103,4.1048 20.022508,6.277929c8.525353,2.786063 16.994986,5.748577 25.501765,8.553214c11.320703,3.714751 22.687841,7.318059 33.989971,11.144253c2.098834,0.74295 2.591039,0.455057 2.098834,-1.60663c-1.680925,-7.039453 -1.049417,-14.199635 -0.928688,-21.304097c0.065008,-3.055383 1.049417,-5.033488 -3.556874,-6.500814c-6.500814,-2.024539 -13.048063,-4.179095 -19.502442,-6.380085c-2.544604,-0.854393 -5.572126,-0.928688 -5.367815,-4.940619c-2.024539,1.78308 -1.857375,4.42984 -3.854054,6.129339c-1.216581,-2.786063 0.167164,-5.655708 -1.04013,-8.478919c-1.736646,2.293859 -1.922384,5.042774 -4.049079,7.206617c-0.845106,-3.222546 0.612934,-6.250068 -0.845106,-9.129c-0.86368,2.135982 -1.625204,4.030505 -2.405301,5.906454c-0.204311,0.501491 -0.492204,1.132999 -1.067991,1.058704c-0.86368,-0.102156 -0.74295,-0.928688 -0.74295,-1.541622c0,-1.959531 0.436483,-3.965497 -0.362188,-6.129339c-1.93167,2.070974 -1.857375,4.931332 -4.318398,7.206617l0,-6.500814a0.928688,0.928688 0 0 0 -0.492204,-1.067991c-0.659368,-0.195024 -0.928688,0.213598 -1.18872,0.74295c-0.845106,1.476613 -1.105138,3.306128 -2.786063,4.727021c-0.789385,-3.473292 0.139303,-6.649404 -0.278606,-10.215565c-1.263015,3.278268 -2.043113,6.166487 -3.714751,8.98041c-1.857375,-2.219564 -0.278606,-4.959193 -1.810941,-7.280912c-0.74295,1.60663 -1.346597,2.841784 -1.857375,4.1048c-0.232172,0.520065 -0.473631,1.086565 -1.086565,0.975122a1.179433,1.179433 0 0 1 -0.780098,-1.290876l-0.44577,-4.42984c-2.219564,0.993696 -1.773794,3.612595 -3.714751,4.69916c-0.984409,-1.857375 -0.315754,-4.151234 -2.219564,-5.377102c-0.835819,1.383745 -0.835819,3.194686 -2.656047,4.114087l-1.095852,-5.980749c-1.978105,0.975122 -1.383745,3.51044 -3.380423,4.643439a39.534237,39.534237 0 0 0 -0.612934,-3.95621c-0.157877,-0.59436 0.845106,-1.653064 -0.538639,-1.792367c-0.928688,-0.092869 -1.170147,0.74295 -1.476613,1.476613c-0.195024,0.492204 -0.538639,0.928688 -0.74295,1.402318s-0.29718,1.523048 -1.151573,1.33731a1.253728,1.253728 0 0 1 -0.928688,-1.75522c0.780098,-1.355884 -0.241459,-1.272302 -0.928688,-1.662351c-1.067991,-0.59436 -1.290876,0 -1.560195,0.826532c-0.185738,0.575786 -0.455057,1.532335 -1.216581,1.067991s-2.0524,-0.417909 -1.75522,-1.857375a1.132999,1.132999 0 0 0 -0.622221,-1.476613l-0.130016,0c-1.402318,0.167164 -0.538639,2.442449 -2.312432,2.293859c-2.618899,-0.232172 -1.030843,-2.869645 -2.368154,-4.28125c-0.622221,2.219564 -2.841784,2.061687 -3.714751,3.881915c-0.603647,-1.718072 0.343614,-3.185399 -0.547926,-4.383406c-1.170147,-0.390049 -0.74295,1.615917 -2.126695,1.105138c0.659368,-3.5383 -2.256711,-4.039792 -4.541283,-4.801316c-3.250407,-1.132999 -6.63083,-1.838802 -9.927672,-2.702481a1.625204,1.625204 0 0 0 -0.547926,0.417909l2.396014,1.365171zm167.247374,17.691501c0.74295,-1.810941 -0.250746,-3.519727 0.055721,-5.172791a40.639375,40.639375 0 0 0 -4.931332,-29.365106c-4.067652,-6.807281 -11.552875,-8.776099 -18.852361,-5.692856a31.770407,31.770407 0 0 0 -11.710752,8.868968c3.148251,0.232172 5.117069,-1.643777 7.206617,-3.343276c6.500814,-5.274946 17.301452,-3.714751 21.071925,3.529013a44.474856,44.474856 0 0 1 4.773455,19.251697c0.130016,4.002644 -1.030843,8.441772 2.414588,11.905777l0,0l-0.027861,0.018574zm-185.068892,-19.502442c0.826532,5.599987 1.049417,11.822195 3.073956,15.156184a106.984827,106.984827 0 0 1 -0.687229,-13.753865l-2.386727,-1.402318zm173.989647,41.642358c0,0.640795 -0.167164,1.857375 0.492204,1.578769c1.922384,-0.74295 1.476613,-3.027522 2.423875,-4.476275c0.250746,-0.380762 0.260033,-1.263015 -0.529352,-1.114425c-2.256711,0.436483 -1.745933,2.609613 -2.377441,4.021218l0,0l-0.009287,-0.009287zm5.599987,5.73929c2.0524,-3.09253 3.95621,-6.33365 3.98407,-10.215565l-3.98407,10.215565zm0.900827,-15.8527c-1.374458,3.222546 -2.906793,5.646421 -3.250407,8.868968c2.005966,-2.618899 2.721055,-5.330668 3.250407,-8.868968l0,0zm-49.22045,-22.827145c0.928688,-1.365171 1.727359,-2.572465 1.077278,-4.141947a0.928688,0.928688 0 0 0 -0.789385,-0.130016a4.039792,4.039792 0 0 0 -0.845106,3.816907a2.786063,2.786063 0 0 0 0.557213,0.464344l0,0l0,-0.009287z" class="cls-1"/>
   <path stroke="null" id="svg_2" d="m58.112943,101.487541c1.095852,-0.417909 1.086565,-1.950244 2.683908,-1.578769c-0.74295,2.126695 -0.455057,4.968479 -4.225529,3.529013a4.011931,4.011931 0 0 0 -3.138965,0.464344c-2.878932,1.430179 -5.832159,-0.44577 -8.766812,0.185738c-0.74295,0.157877 -1.690212,-1.225868 -2.005966,-2.293859c-0.928688,-3.222546 -2.906793,-4.773455 -6.370798,-4.206955c-0.455057,0.074295 -1.067991,-0.380762 -1.355884,0.269319a1.30945,1.30945 0 0 0 0.585073,1.671638a8.302468,8.302468 0 0 1 2.479596,3.556874c-2.080261,-1.959531 -3.454718,4.225529 -5.627848,0.195024c-1.225868,0.74295 0.74295,2.488883 -1.01227,2.999661a0.928688,0.928688 0 0 1 -0.817245,-0.241459a4.42984,4.42984 0 0 1 0.287893,-3.417571c1.643777,-3.556874 3.352563,-7.123035 5.005627,-10.698483c0.492204,-1.067991 1.142286,-0.86368 2.061687,-0.59436a95.654837,95.654837 0 0 0 11.7479,2.219564c4.754881,0.789385 8.042436,3.928349 8.469632,7.94028z" class="cls-1"/>
   <path stroke="null" id="svg_3" d="m186.188269,125.159792a10.726343,10.726343 0 0 1 10.457024,10.58704c0,1.476613 -3.556874,3.231833 -5.237799,1.93167c-4.949906,-3.863341 -9.39832,-0.74295 -14.041759,0.362188c-1.857375,0.436483 -3.714751,1.086565 -5.572126,1.532335a1.922384,1.922384 0 0 1 -1.476613,-0.352901c-0.538639,-0.455057 0,-0.928688 0.232172,-1.411605c2.786063,-4.541283 6.00861,-8.65537 10.58704,-11.580736a9.286877,9.286877 0 0 1 5.052061,-1.067991z" class="cls-1"/>
   <path stroke="null" id="svg_4" d="m178.935217,155.936503a14.366799,14.366799 0 0 1 -1.244442,-2.368154c-0.269319,-0.928688 0.984409,-1.680925 1.142286,-1.374458c0.928688,1.857375 3.98407,6.500814 2.730342,7.169469c-1.690212,0.817245 -1.680925,-1.272302 -2.869645,-1.662351c-1.105138,1.430179 0.780098,2.479596 0.585073,3.798333c-3.575448,0.222885 -5.906454,2.953227 -8.646083,4.643439s-4.569144,3.5383 -7.030166,3.95621c-0.928688,0.167164 -1.727359,0.250746 -1.968818,-0.928688c-0.185738,-0.928688 0,-1.263015 1.04013,-1.857375c5.172791,-2.953227 10.299147,-6.120052 13.465972,-11.404285c1.002983,-1.718072 1.45804,-0.222885 2.79535,0.027861z" class="cls-1"/>
   <path stroke="null" id="svg_5" d="m180.551134,176.711248c0,1.959531 -5.804298,6.732986 -7.429502,6.45438a0.993696,0.993696 0 0 1 -0.74295,-1.476613a7.689534,7.689534 0 0 1 1.318737,-2.888219c1.476613,-1.532335 2.154556,-2.953227 1.476613,-5.172791s1.290876,-3.129678 2.786063,-4.049079c0.74295,-0.464344 1.198007,0.139303 1.272302,0.872966a29.355819,29.355819 0 0 0 1.318737,6.259355z" class="cls-1"/>
   <path stroke="null" id="svg_6" d="m115.533706,81.307157c5.655708,2.683908 11.868629,3.529013 17.812231,5.219225c7.513084,2.117408 15.128323,3.909775 22.622833,6.129339c-4.234816,-0.120729 -8.293181,-1.383745 -12.360834,-2.396014c-5.572126,-1.374458 -11.079245,-2.953227 -16.577076,-4.42984c-3.380423,-0.928688 -6.742273,-1.792367 -10.094836,-2.786063c-0.74295,-0.222885 -1.708785,-0.538639 -1.411605,-1.736646l0,0l0,0l0.009287,0z" class="cls-1"/>
   <path stroke="null" id="svg_7" d="m167.354481,188.356992c-1.318737,-2.033826 -0.975122,-4.318398 -2.219564,-6.017897c-0.306467,-0.408623 -0.269319,-1.049417 0.083582,-1.132999a15.564806,15.564806 0 0 1 4.643439,-0.74295c1.105138,0.092869 1.142286,1.523048 0.928688,2.442449c-0.315754,1.244442 0.464344,3.398997 -1.857375,3.315415c-1.894523,-0.083582 -0.845106,1.393032 -1.578769,2.135982z" class="cls-1"/>
   <path stroke="null" id="svg_8" d="m181.628412,164.545438c2.516744,2.581752 2.553891,6.77942 6.045757,8.673943c0.455057,0.241459 0.74295,0.74295 0.325041,1.01227s-1.411605,0.835819 -1.680925,0.631508c-1.773794,-1.33731 -1.857375,-0.167164 -1.93167,1.16086a0.928688,0.928688 0 0 1 -0.807958,1.01227l-0.185738,0c-0.86368,-0.120729 -0.86368,-0.845106 -0.74295,-1.476613a19.892491,19.892491 0 0 0 -1.021557,-11.014237z" class="cls-1"/>
   <path stroke="null" id="svg_9" d="m55.094708,72.401041c5.683569,-2.953227 11.47858,-5.414249 17.997968,-2.275285c-6.194347,-0.817245 -12.19367,-0.436483 -17.997968,2.275285z" class="cls-1"/>
   <path stroke="null" id="svg_10" d="m60.462523,115.092817c-0.74295,-0.501491 -1.114425,0.195024 -1.745933,0.520065c1.569482,-3.863341 2.293859,-8.042436 5.052061,-11.413572c0.176451,4.049079 -3.789046,6.881576 -3.38971,10.986376l0.083582,-0.092869z" class="cls-1"/>
   <path stroke="null" id="svg_11" d="m115.533706,81.307157c-2.786063,1.968818 -5.274946,-0.631508 -7.949567,-0.74295c-1.383745,0 -2.786063,-0.928688 -4.076939,-1.708785c4.076939,0.436483 7.912419,2.219564 12.072941,2.433162l0,0l0,0l-0.046434,0.018574z" class="cls-1"/>
   <path stroke="null" id="svg_12" d="m68.913582,104.858678c-0.241459,2.786063 -1.718072,4.903471 -3.454718,6.909437c0.575786,-2.609613 1.30945,-5.079922 3.454718,-6.909437z" class="cls-1"/>
   <path stroke="null" id="svg_13" d="m117.75327,130.722631c-0.5665,-2.721055 0.538639,-4.829176 2.600326,-6.593683a13.20594,13.20594 0 0 1 -2.674621,6.500814l0.074295,0.092869z" class="cls-1"/>
   <path stroke="null" id="svg_14" d="m187.757751,169.551065c-2.173129,-0.928688 -2.786063,-2.786063 -2.786063,-5.172791c2.786063,0.928688 1.857375,3.575448 2.711768,5.265659l0.074295,-0.092869z" class="cls-1"/>
   <path stroke="null" id="svg_15" d="m74.364979,115.055669c0.798671,-3.36185 1.476613,-5.692856 3.863341,-8.218886c-0.780098,3.287555 -2.061687,5.321381 -3.863341,8.218886z" class="cls-1"/>
   <path stroke="null" id="svg_17" d="m402.860404,139.433722a5.637135,5.637135 0 0 1 0.928688,-0.176451c1.049417,0 2.247424,-1.857375 3.101817,-0.092869c0.752237,1.541622 -0.371475,2.600326 -1.699499,3.371136a1.857375,1.857375 0 0 0 -1.263015,1.198007c0.928688,0.705803 2.479596,-1.207294 3.008948,0.696516c0.427196,1.523048 -0.5665,2.433162 -1.699499,3.194686a12.34226,12.34226 0 0 0 -2.786063,2.265998a13.363816,13.363816 0 0 1 1.857375,-0.687229c0.770811,-0.167164 1.680925,-1.263015 2.340293,0a2.126695,2.126695 0 0 1 -0.752237,2.925366c-1.625204,1.105138 -3.287555,2.145269 -5.098496,3.315415c1.45804,0.102156 2.386727,-0.798671 3.501153,-1.123712c0.780098,-0.222885 1.662351,-1.402318 2.340293,-0.232172a2.396014,2.396014 0 0 1 -0.724376,2.999661c-0.668655,0.575786 -1.643777,0.761524 -2.173129,1.857375c0.780098,0.71509 2.386727,-1.077278 2.786063,0.770811c0.538639,2.377441 -2.005966,2.702481 -2.841784,4.13266c0.761524,1.030843 2.321719,-0.928688 2.702481,0.975122c0.464344,2.256711 -1.801654,2.609613 -2.786063,4.197669c1.077278,0.306467 2.256711,0.167164 2.182416,2.089547c-0.232172,5.925028 -0.139303,11.868629 0.102156,17.78437c0.111443,2.693194 -1.420892,4.076939 -3.231833,5.367815c-1.132999,0.807958 -2.962514,0.29718 -3.315415,-0.408623c-1.272302,-2.553891 -3.65903,-4.244103 -4.597004,-7.132322s-1.198007,-6.045757 -4.114087,-7.949567c-1.430179,-0.928688 -0.845106,-3.046096 0.928688,-3.640456c3.018235,-0.993696 4.457701,-4.290537 7.615239,-5.098496c0.659368,-0.167164 0.603647,-1.01227 0.269319,-1.569482a1.504474,1.504474 0 0 0 -1.857375,-0.59436c-1.60663,0.538639 -3.185399,1.18872 -5.061348,1.913097c0.928688,-2.20099 2.906793,-2.479596 4.513422,-3.24112c0.993696,-0.473631 2.145269,-0.928688 2.219564,-2.154556a2.238137,2.238137 0 0 0 -1.439466,-2.145269a2.470309,2.470309 0 0 0 -2.916079,0.928688a2.711768,2.711768 0 0 1 -2.786063,1.179433c-0.204311,-1.01227 1.355884,-0.557213 1.030843,-1.959531a108.080679,108.080679 0 0 1 -30.293794,4.764168c-10.215565,0.130016 -20.375409,-0.092869 -30.646695,-3.129678c1.615917,-1.60663 3.268981,-1.123712 4.708447,-0.928688a170.878543,170.878543 0 0 0 35.819486,0.817245a96.871418,96.871418 0 0 0 23.421505,-5.302807a4.643439,4.643439 0 0 0 0.928688,-0.854393c-2.49817,-0.250746 -4.504136,0.557213 -6.556535,0.928688s-4.364832,0.733663 -6.500814,1.179433a130.127725,130.127725 0 0 1 -32.996275,2.228851a89.571932,89.571932 0 0 1 -16.929977,-2.405301a12.93662,12.93662 0 0 1 -1.45804,-0.390049a1.123712,1.123712 0 0 1 -0.928688,-1.30945c0.195024,-0.798671 0.86368,-0.733663 1.467327,-0.59436a24.09016,24.09016 0 0 0 2.906793,0.761524c15.787691,1.63449 31.491801,2.275285 47.149476,-0.854393a69.020072,69.020072 0 0 0 13.753865,-4.736307c-22.084194,5.014914 -44.159102,7.011592 -66.605484,1.467327c1.272302,-2.015252 2.591039,-1.78308 4.318398,-1.402318c13.633136,2.962514 27.349854,2.043113 41.057285,0.622221a72.316914,72.316914 0 0 0 18.657337,-4.531996c0.417909,-0.157877 1.058704,-0.120729 1.095852,-1.132999a145.933991,145.933991 0 0 1 -19.12168,3.408284a130.17416,130.17416 0 0 1 -46.434387,-1.857375a1.680925,1.680925 0 0 1 -0.501491,-0.362188c0.241459,-2.618899 1.968818,-1.93167 3.547587,-1.615917c16.084872,3.176112 32.197604,2.721055 48.291762,0.092869a44.744175,44.744175 0 0 0 13.930316,-4.411267c-1.114425,-0.139303 -2.34958,0 -2.572465,-1.318737c-0.195024,-1.123712 -1.151573,-2.433162 -1.690212,-1.857375c-1.04013,1.105138 -3.612595,0.520065 -3.343276,2.711768c0.222885,1.792367 -0.928688,1.857375 -1.940957,1.978105c-11.144253,1.4859 -22.288506,4.476275 -33.66493,1.18872a1.04013,1.04013 0 0 0 -1.30945,0.287893l1.04013,0.538639c-0.371475,0.557213 -0.928688,0.157877 -1.365171,0.213598c-3.844767,0.501491 -7.652387,-0.204311 -11.394999,-0.789385c-3.333989,-0.520065 -6.974445,0.111443 -9.964819,-2.470309c-1.132999,-0.975122 -1.913097,0.464344 -1.857375,1.718072c0.055721,1.662351 1.504474,2.526031 2.340293,3.714751c-3.036809,0.083582 -4.643439,-0.538639 -3.621882,-4.336972c0.380762,-1.448753 -0.612934,-3.482579 0,-5.395676c0.232172,-0.71509 -0.538639,-1.625204 -1.625204,-1.857375a14.338939,14.338939 0 0 1 -2.581752,-0.798671c-0.798671,-0.315754 -1.513761,-0.928688 -1.086565,-1.857375s1.235155,-0.343614 1.857375,-0.14859c12.072941,3.464005 24.480209,4.411267 36.989632,4.336972c8.868968,-0.046434 17.645067,-0.71509 26.29115,-2.981088a3.352563,3.352563 0 0 1 4.374119,1.950244a1.151573,1.151573 0 0 0 1.541622,0.473631c0.622221,-0.139303 1.290876,-0.455057 0.780098,-1.198007c-0.668655,-0.984409 -0.278606,-2.080261 -0.102156,-2.906793c0.529352,-2.461022 -1.049417,-2.591039 -2.219564,-1.75522c-3.324702,2.386727 -7.215904,2.34958 -10.912081,2.962514a132.52374,132.52374 0 0 1 -18.332296,1.504474c-1.114425,0 -2.451736,0.547926 -3.259694,-0.86368a0.928688,0.928688 0 0 0 -0.752237,-0.362188c-7.429502,2.702481 -14.756848,0.287893 -22.056334,-0.668655c-4.076939,-0.538639 -8.23746,-1.151573 -11.998646,-3.120391c-0.436483,-0.232172 -0.984409,-0.278606 -1.393032,-0.547926c-0.733663,-0.464344 -1.922384,-0.928688 -1.615917,-1.857375c0.380762,-1.151573 1.578769,-0.455057 2.386727,-0.287893c4.225529,0.928688 8.35819,2.303146 12.658014,2.841784c16.920691,2.108121 33.841381,2.999661 50.613482,-1.290876a7.429502,7.429502 0 0 1 3.268981,-0.29718c2.015252,0.44577 2.906793,0.427196 3.844767,-2.033826c0.835819,-2.182416 4.086226,-2.005966 6.500814,-2.247424l-0.074295,-0.083582c-1.142286,0.928688 -2.851071,0.928688 -3.798333,2.507457a11.980072,11.980072 0 0 0 3.519727,-0.928688c0.538639,-0.287893 1.179433,-1.170147 1.857375,-0.436483s0.260033,1.643777 -0.826532,2.173129c1.745933,0.817245 2.94394,-0.408623 4.309111,-0.436483c0.928688,0 1.93167,-0.928688 2.553891,0.380762c0.547926,1.179433 0,2.117408 -0.928688,2.860358c-0.547926,0.417909 -1.086565,0.86368 -1.857375,1.4859c1.095852,0.529352 2.600326,-0.798671 3.027522,0.826532s-0.5665,2.293859 -1.727359,3.101817c-0.761524,0.529352 -1.857375,0.872966 -2.126695,1.968818c-0.575786,-0.111443 -1.578769,-0.092869 -1.653064,-0.334328c-1.235155,-4.504136 -3.287555,-1.077278 -4.987053,-0.529352c-0.780098,0.250746 -1.002983,0.789385 -0.575786,1.653064a1.198007,1.198007 0 0 0 1.699499,0.640795c1.75522,-0.464344 3.575448,-0.937975 5.395676,-1.430179zm-14.134627,0.130016a2.693194,2.693194 0 0 0 -2.461022,-0.325041a136.897859,136.897859 0 0 1 -18.239427,2.34958c-12.175096,0.575786 -24.322332,0.687229 -36.320977,-2.061687c-1.550909,-0.352901 -4.179095,-2.126695 -4.643439,-0.130016c-0.668655,2.786063 2.563178,1.950244 4.141947,2.238137a142.757879,142.757879 0 0 0 43.267562,1.402318c4.689873,-0.557213 9.611918,-0.603647 14.255357,-3.473292zm9.519049,-4.55057a2.210277,2.210277 0 0 0 3.268981,-0.928688c0.278606,-0.492204 -0.436483,-2.191703 -1.058704,-2.442449c-1.745933,-0.687229 -3.008948,0.455057 -4.262677,1.736646c1.393032,0.659368 2.572465,-1.253728 3.417571,0s-1.597343,0.482918 -1.383745,1.63449l0.018574,0zm0.250746,40.555793l0,-0.417909a15.249053,15.249053 0 0 0 -3.203973,0.055721c-0.752237,0.167164 -2.228851,0.352901 -1.950244,1.328023c0.371475,1.300163 1.383745,0.204311 2.126695,0c0.956548,-0.362188 1.987392,-0.650081 3.008948,-0.965835l0.018574,0z" class="cls-1"/>
   <path stroke="null" id="svg_18" d="m328.574672,52.387821c-6.983732,0.278606 -12.93662,1.978105 -17.775083,6.575109c-0.640795,0.603647 -1.365171,1.439466 -2.293859,0.455057s-1.569482,-2.377441 -0.854393,-3.844767c1.077278,-2.20099 3.06467,-3.306128 5.219225,-4.234816a93.203101,93.203101 0 0 1 33.748512,-7.039453c15.899134,-0.482918 31.788981,-1.151573 47.437369,2.618899c4.494849,1.077278 8.961837,2.312432 12.769456,5.126356c3.287555,2.423875 3.148251,4.206955 0.14859,6.946584c-5.107783,4.643439 -11.608597,5.757864 -17.914386,7.020879a173.664606,173.664606 0 0 1 -60.69903,1.114425a60.039662,60.039662 0 0 1 -14.24607,-3.714751c-1.077278,-0.44577 -2.600326,-0.631508 -2.637473,-2.070974c0,-1.263015 1.179433,-2.0524 2.154556,-2.711768a35.364429,35.364429 0 0 1 11.840769,-5.024201a8.961837,8.961837 0 0 0 3.101817,-1.216581zm11.460007,-2.080261c3.324702,0.408623 6.101478,-0.928688 8.961837,-0.984409c13.930316,-0.055721 27.944214,-0.204311 41.670219,2.990375c5.079922,1.179433 10.271286,2.210277 14.348225,6.138626a3.046096,3.046096 0 0 0 -1.699499,-2.786063a35.633748,35.633748 0 0 0 -13.178079,-4.69916c-8.543927,-1.300163 -17.162149,-1.857375 -25.780372,-2.423875c-2.108121,-0.139303 -4.067652,-0.928688 -6.240782,-0.789385a155.657351,155.657351 0 0 0 -18.08155,2.553891z" class="cls-1"/>
   <path stroke="null" id="svg_19" d="m385.011026,104.125014a4.13266,4.13266 0 0 1 -1.411605,-3.24112c-0.102156,-4.049079 0.473631,-8.033149 0.501491,-12.072941c0,-1.01227 0.213598,-2.312432 -1.198007,-2.284572s-0.86368,1.281589 -0.798671,2.117408c0.167164,2.182416 -0.86368,4.169808 -1.33731,6.194347a9.927672,9.927672 0 0 0 0.29718,6.259355c0.575786,1.439466 0.065008,2.135982 -1.225868,2.433162a37.964755,37.964755 0 0 1 -6.203634,1.216581c-9.936959,0.575786 -19.883204,1.01227 -29.82945,0c-5.692856,-0.585073 -6.816568,-2.507457 -4.513422,-7.847411a1.968818,1.968818 0 0 0 0.102156,-2.015252c-3.491866,-4.420554 -2.656047,-10.336294 -5.228512,-15.072602a4.1048,4.1048 0 0 0 -0.222885,-0.86368c-1.541622,-1.411605 -2.358867,-2.860358 -0.984409,-4.912758s3.501153,-1.402318 5.219225,-1.216581c9.834803,1.077278 19.68818,0.705803 29.53227,0.473631c3.408284,-0.083582 6.807281,-0.603647 10.215565,-0.928688c1.93167,-0.176451 4.002644,-1.60663 5.702143,0.807958a1.857375,1.857375 0 0 0 2.786063,-1.16086c0.538639,-2.043113 2.591039,-1.662351 4.049079,-1.625204c1.801654,0 0.74295,1.699499 1.01227,2.618899c1.662351,5.683569 1.773794,11.738613 3.974784,17.264305c1.207294,3.018235 4.578431,4.829176 4.643439,8.729665c0.315754,-0.260033 0.176451,-0.074295 0,0c-5.14493,1.60663 -5.200651,1.615917 -6.45438,-3.854054c-0.928688,-4.030505 -1.93167,-7.986715 -4.857037,-11.357851c-0.928688,0.826532 -0.213598,2.089547 -0.826532,3.259694c-1.355884,-2.990375 -1.60663,-6.00861 -1.996679,-8.998984c-0.092869,-0.724376 0,-1.968818 -1.095852,-1.810941c-1.365171,0.204311 -0.44577,1.318737 -0.278606,1.922384c2.135982,7.578092 1.123712,15.295487 1.049417,22.966448c0,1.504474 0.074295,1.513761 2.488883,2.228851l-3.176112,0.696516l0.065008,0.074295z" class="cls-1"/>
   <path stroke="null" id="svg_20" d="m384.936731,104.060006a1.801654,1.801654 0 0 0 2.451736,1.142286c2.433162,-1.086565 5.377102,-0.780098 7.485223,-2.851071a3.426858,3.426858 0 0 1 3.036809,-0.928688c0.845106,0.185738 1.792367,0.44577 1.727359,1.708785a1.653064,1.653064 0 0 1 -1.383745,1.625204c-9.6955,3.798333 -19.808909,5.377102 -30.145204,5.804298a29.718007,29.718007 0 0 0 -3.008948,0.176451a19.279557,19.279557 0 0 1 -11.367138,-1.913097a4.643439,4.643439 0 0 0 -4.13266,-0.232172l5.339954,1.857375a66.14114,66.14114 0 0 1 -15.899134,-0.455057c-3.575448,-0.482918 -7.19733,-0.752237 -10.698483,-1.801654c-0.789385,-0.241459 -2.0524,-0.668655 -2.265998,0.603647s1.077278,1.170147 1.93167,1.346597c14.088193,2.971801 28.334263,3.166825 42.61748,2.191703a69.029359,69.029359 0 0 0 14.255357,-2.108121c2.061687,-0.585073 4.727021,-0.622221 7.132322,-0.928688c1.857375,-0.241459 2.739629,-1.857375 4.439127,-2.284572s2.897506,-0.631508 3.464005,1.077278c0.631508,1.922384 -1.179433,1.699499 -2.219564,1.987392c-7.318059,2.043113 -14.506102,4.643439 -22.177063,5.237799c-7.912419,0.585073 -15.787691,0.352901 -23.727972,0.315754a116.364573,116.364573 0 0 1 -19.437434,-1.560195a49.081147,49.081147 0 0 1 -11.877916,-3.176112c-0.854393,-0.380762 -2.210277,-0.520065 -1.857375,-1.857375s1.476613,-0.854393 2.526031,-0.696516s2.878932,1.857375 3.445431,0.325041c0.71509,-1.857375 -1.764507,-1.550909 -2.786063,-2.210277a14.933299,14.933299 0 0 0 -2.479596,-1.095852c-0.71509,-0.278606 -1.281589,-0.464344 -0.631508,-1.45804c0.417909,-0.640795 0.260033,-1.30945 1.550909,-0.975122a118.528416,118.528416 0 0 0 14.951873,3.203973a175.234089,175.234089 0 0 0 37.639714,0.612934c4.141947,-0.380762 8.53464,0.139303 12.184383,-2.600326l-0.083582,-0.083582z" class="cls-1"/>
   <path stroke="null" id="svg_21" d="m411.014282,193.009717c0.185738,3.083243 -1.365171,5.572126 -2.479596,8.246747c-0.204311,0.473631 -0.529352,1.318737 -1.225868,1.179433c-4.039792,-0.835819 -5.572126,2.331006 -8.126018,4.411267s-5.423536,5.14493 -9.714074,4.504136a4.541283,4.541283 0 0 0 -3.166825,1.411605c-1.4859,1.448753 -3.231833,1.318737 -4.99634,1.365171c-8.441772,0.222885 -16.809248,1.773794 -25.288167,1.393032c-11.144253,-0.501491 -22.288506,-1.60663 -32.680521,-6.129339c-1.653064,-0.71509 -3.203973,-1.653064 -4.792029,-2.516744c-0.510778,-0.278606 -1.216581,-0.547926 -1.021557,-1.300163s0.993696,-0.928688 1.718072,-0.928688c2.098834,0 4.160521,0.14859 6.03647,1.33731c1.625204,1.030843 2.553891,0.817245 2.516744,-1.45804c-0.157877,-10.642761 -0.408623,-21.285523 -0.993696,-31.909711c-0.195024,-3.556874 0.278606,-7.150896 -0.631508,-10.670622a1.067991,1.067991 0 0 1 0.74295,-1.430179c0.928688,-0.065008 1.086565,0.835819 1.058704,1.513761c-0.352901,9.862664 0.603647,19.68818 0.622221,29.541557c0,4.792029 0.928688,9.565484 0.315754,14.366799c-0.130016,1.114425 0.510778,1.513761 1.541622,1.801654a76.635312,76.635312 0 0 0 18.443738,2.711768c3.24112,0.083582 6.380085,0.761524 9.584057,0.928688c9.927672,0.390049 19.576737,-1.597343 29.188655,-3.714751a49.786949,49.786949 0 0 0 15.091176,-5.850733c3.612595,-2.154556 6.835142,-4.671299 8.256034,-8.80396z" class="cls-1"/>
   <path stroke="null" id="svg_22" d="m394.474354,121.760794c-2.925366,-0.185738 -5.386389,1.439466 -8.107444,2.061687c-10.874933,2.470309 -21.926317,2.711768 -33.005562,2.786063c-1.857375,0 -2.702481,-2.173129 -4.643439,-1.439466l1.30945,0.631508l0,0.510778c-2.869645,-0.167164 -5.767151,-0.176451 -8.608935,-0.538639a126.552278,126.552278 0 0 1 -15.323348,-2.470309a27.126969,27.126969 0 0 1 -5.73929,-2.423875c-0.612934,-0.325041 -1.318737,-0.687229 -0.928688,-1.60663s1.077278,-0.71509 1.78308,-0.547926c3.287555,0.770811 6.500814,1.75522 9.862664,2.284572c18.007255,2.860358 35.940215,3.333989 54.003192,-0.334328c5.395676,-1.095852 10.522032,-2.916079 15.8527,-4.086226c0.835819,-0.185738 1.773794,0.065008 3.203973,-0.473631c-1.393032,-0.668655 -2.470309,0.157877 -3.250407,-0.789385a5.469971,5.469971 0 0 1 3.380423,-1.476613c0.74295,-0.130016 1.857375,-1.16086 2.284572,0.260033c0.362188,1.142286 0.464344,2.423875 -1.077278,3.027522c-3.083243,1.207294 -6.138626,2.479596 -9.231156,3.649743a2.786063,2.786063 0 0 0 -1.745933,1.049417l-0.018574,-0.074295z" class="cls-1"/>
   <path stroke="null" id="svg_23" d="m359.239941,121.240729a138.597357,138.597357 0 0 1 -22.845718,-1.328023a80.972284,80.972284 0 0 1 -15.509085,-3.714751c-1.077278,-0.371475 -1.913097,-1.049417 -1.560195,-2.191703c0.399336,-1.290876 1.495187,-0.547926 2.265998,-0.325041c14.487529,4.188382 29.300098,4.922045 44.233397,4.1048c6.60297,-0.362188 13.150218,-1.216581 19.706754,-2.163842c4.374119,-0.631508 8.079583,-2.247424 12.072941,-3.426858c2.080261,-0.612934 4.336972,-0.371475 5.312094,-3.09253c0.315754,-0.882253 2.154556,-1.745933 3.055383,-0.473631a2.275285,2.275285 0 0 1 -1.01227,3.529013c-4.299824,2.163842 -9.063992,2.999661 -13.512407,4.643439c-9.918385,3.603308 -20.096803,4.374119 -30.442384,4.485562l-1.810941,0l0.046434,-0.046434z" class="cls-1"/>
   <path stroke="null" id="svg_24" d="m394.381485,121.825803c1.60663,0.928688 3.176112,1.75522 4.959193,0.269319a0.826532,0.826532 0 0 1 1.179433,0.585073a0.817245,0.817245 0 0 1 -0.408623,1.021557a12.072941,12.072941 0 0 1 -1.588056,0.845106a81.13016,81.13016 0 0 1 -24.554504,6.277929a165.399285,165.399285 0 0 1 -38.754139,-0.928688a52.508004,52.508004 0 0 1 -12.853038,-3.333989c-1.095852,-0.473631 -2.869645,-1.030843 -2.600326,-2.024539c0.408623,-1.513761 2.0524,-0.575786 3.111104,-0.29718c17.895813,4.643439 36.023797,5.247086 54.291085,3.129678c4.773455,-0.557213 9.342599,-2.396014 14.236783,-2.358867c0.975122,0 1.940957,0.111443 3.194686,0.241459c-1.142286,-1.346597 -2.637473,-1.290876 -3.826193,-1.857375c0.984409,-1.077278 2.591039,-0.780098 3.714751,-1.63449l-0.102156,0.065008z" class="cls-1"/>
   <path stroke="null" id="svg_25" d="m399.870029,64.730081c-1.60663,1.727359 -2.971801,1.588056 -4.13266,2.358867c1.01227,0.826532 2.080261,0.14859 3.046096,0.427196c-3.454718,0.473631 -6.872289,1.151573 -10.327008,1.643777c-4.457701,0.640795 -8.961837,1.318737 -13.438112,1.950244a129.802685,129.802685 0 0 1 -30.535253,0.724376c-6.909437,-0.659368 -13.688857,-2.005966 -20.505425,-3.166825c-2.043113,-0.343614 -3.631169,-1.578769 -5.572126,-2.135982a175.234089,175.234089 0 0 0 81.464488,-1.801654z" class="cls-1"/>
   <path stroke="null" id="svg_26" d="m334.072503,168.028017l10.317721,0.984409a152.750559,152.750559 0 0 0 36.906051,-1.058704c1.476613,-0.222885 4.058365,-1.207294 4.28125,0.352901c0.269319,1.940957 -2.423875,1.773794 -4.011931,2.0524c-14.032472,2.433162 -28.092804,2.953227 -42.17171,0.399336c-2.674621,-0.482918 -3.83548,-0.937975 -5.321381,-2.730342z" class="cls-1"/>
   <path stroke="null" id="svg_27" d="m384.806714,172.996497c-7.429502,4.392693 -15.592667,4.225529 -23.560808,4.234816s-16.289183,1.123712 -23.765119,-3.426858c15.787691,1.411605 31.566096,1.541622 47.325927,-0.807958z" class="cls-1"/>
   <path stroke="null" id="svg_28" d="m325.110667,102.750557c-1.560195,-1.857375 -1.16086,-3.5383 -1.235155,-5.052061c-0.408623,-8.50678 -0.677942,-17.013559 -1.01227,-25.529626c0,-0.612934 -0.176451,-1.346597 0.603647,-1.448753c0.993696,-0.139303 1.021557,0.668655 1.049417,1.411605q0.510778,14.403947 1.030843,28.78932a8.841107,8.841107 0 0 1 -0.436483,1.829515z" class="cls-1"/>
   <path stroke="null" id="svg_29" d="m399.071358,126.088479c1.495187,-1.950244 3.900488,-1.857375 5.934315,-2.442449c1.643777,-0.455057 2.043113,0.928688 1.625204,2.293859c-0.5665,1.764507 -3.185399,2.219564 -4.522709,0.86368c-0.928688,-0.928688 -2.043113,-0.640795 -3.101817,-0.798671l0.065008,0.083582z" class="cls-1"/>
   <path stroke="null" id="svg_30" d="m400.130062,120.794959c0.928688,-1.439466 2.786063,-1.467327 4.336972,-1.996679c0.807958,-0.278606 1.913097,-0.603647 2.154556,0.724376c0.343614,1.857375 -1.04013,2.739629 -2.377441,3.38971c-1.123712,0.547926 -1.328023,0 -1.411605,-1.253728c-0.176451,-2.293859 -2.173129,0.965835 -2.702481,-0.86368z" class="cls-1"/>
   <path stroke="null" id="svg_31" d="m327.265222,149.658574l0.492204,9.082566c-2.043113,-1.90381 -2.182416,-7.448076 -0.492204,-9.082566z" class="cls-1"/>
   <path stroke="null" id="svg_32" d="m404.634198,106.808922c0.464344,-2.219564 -0.102156,-3.491866 -2.786063,-2.600326c1.550909,-0.817245 3.09253,-1.857375 4.262677,-0.455057c0.585073,0.752237 0.71509,2.581752 -1.476613,3.055383z" class="cls-1"/>
   <path stroke="null" id="svg_33" d="m320.411507,139.675181c1.63449,-0.167164 2.990375,-0.603647 3.974784,0.74295a0.854393,0.854393 0 0 1 -0.399336,1.253728c-1.448753,0.157877 -2.572465,-0.473631 -3.575448,-1.996679z" class="cls-1"/>
   <path stroke="null" id="svg_34" d="m315.433741,200.197761c-2.888219,-0.585073 -3.018235,-2.786063 -3.120391,-4.940619l3.120391,4.940619z" class="cls-1"/>
  </g>
 </g>
</svg>